<svg width="80" height="80" viewBox="0 0 80 80" fill="none" xmlns="http://www.w3.org/2000/svg">
<path d="M43.1382 1.94141V7.37987C48.5173 7.37987 53.5566 8.73948 58.2562 11.4587C62.7294 14.1213 66.2965 17.6903 68.9578 22.1657C71.6756 26.8677 73.0345 31.9096 73.0345 37.2914H78.4702C78.4702 30.8899 76.8565 24.9416 73.6291 19.4464C70.5149 14.1213 66.2965 9.90082 60.9741 6.78503C55.4818 3.55595 49.5365 1.94141 43.1382 1.94141ZM15.0255 10.0991C13.4967 10.0991 12.166 10.5806 11.0336 11.5437L2.28554 20.4662L2.54034 20.2962C1.12479 21.4859 0.190528 22.9588 -0.262446 24.715C-0.658799 26.4711 -0.545556 28.1706 0.0772847 29.8135C1.6627 34.2323 3.78602 38.7643 6.44724 43.4097C10.1843 49.8112 14.6291 55.5612 19.7817 60.6598C28.0485 68.9874 38.3253 75.5589 50.6123 80.3742H50.6972C52.3393 80.9407 53.9813 81.054 55.6233 80.7141C57.322 80.3742 58.8225 79.6377 60.1248 78.5047L68.703 69.9222C69.8354 68.7891 70.4016 67.4012 70.4016 65.7583C70.4016 64.0588 69.8354 62.6425 68.703 61.5095L57.5768 50.2927C56.4443 49.1597 55.0288 48.5932 53.3301 48.5932C51.6315 48.5932 50.2159 49.1597 49.0835 50.2927L43.7327 55.7312C39.4295 53.6918 35.6924 51.1708 32.5216 48.1683C29.3508 45.1092 26.8311 41.3986 24.9626 37.0365L30.3983 31.598C31.5873 30.3517 32.1819 28.8788 32.1819 27.1793C32.1819 25.4231 31.5024 24.0068 30.1435 22.9305L30.3983 23.1854L19.0173 11.5437C17.8849 10.5806 16.5542 10.0991 15.0255 10.0991ZM43.1382 12.8183V18.2568C46.5921 18.2568 49.763 19.1065 52.6507 20.8061C55.595 22.5056 57.9165 24.8283 59.6152 27.7741C61.3138 30.6633 62.1631 33.8357 62.1631 37.2914H67.5988C67.5988 32.8726 66.4947 28.7655 64.2865 24.9699C62.0782 21.2876 59.1339 18.3418 55.4535 16.1324C51.6598 13.923 47.5547 12.8183 43.1382 12.8183ZM15.0255 15.5376C15.1953 15.5376 15.3935 15.6225 15.62 15.7925L26.7462 27.1793C26.8028 27.4059 26.7462 27.6041 26.5763 27.7741L18.5077 35.7618L19.1022 37.4613L20.2064 39.8407C21.1123 41.7668 22.1598 43.6363 23.3489 45.4491C24.9909 47.9984 26.8028 50.1794 28.7846 51.9922C31.4458 54.5982 34.6449 56.9775 38.382 59.1302C40.2505 60.2066 41.8359 60.9997 43.1382 61.5095L44.8369 62.2743L53.0753 54.0317C53.1886 53.9184 53.2735 53.8617 53.3301 53.8617C53.3868 53.8617 53.4717 53.9184 53.5849 54.0317L65.0509 65.5034C65.1641 65.6167 65.2207 65.7017 65.2207 65.7583C65.2207 65.7583 65.1641 65.815 65.0509 65.9283L56.5576 74.3409C55.3119 75.4173 53.953 75.7005 52.4808 75.1907C40.93 70.7153 31.3042 64.597 23.6037 56.8359C18.8474 52.0772 14.6857 46.6671 11.1185 40.6055C8.57056 36.2434 6.5888 32.0229 5.17325 27.944V27.8591C4.94676 27.3492 4.91845 26.7544 5.08832 26.0746C5.25818 25.3381 5.5696 24.7716 6.02258 24.3751L14.4309 15.7925C14.6008 15.6225 14.799 15.5376 15.0255 15.5376ZM43.1382 23.6952V29.1337C45.4031 29.1337 47.3282 29.9268 48.9136 31.513C50.499 33.0992 51.2917 35.0254 51.2917 37.2914H56.7274C56.7274 34.8554 56.1046 32.5894 54.8589 30.4933C53.6699 28.3972 52.0278 26.7544 49.9328 25.5647C47.8378 24.3184 45.5729 23.6952 43.1382 23.6952Z" fill="black"/>
</svg>
