<svg width="80" height="80" viewBox="0 0 80 80" fill="none" xmlns="http://www.w3.org/2000/svg">
<path d="M28.9098 5.37305V19.2534H23.3576V13.7013H6.70117V63.6706H12.2533V66.4467C12.2533 68.7022 13.063 70.6397 14.6824 72.2591C16.3596 73.9363 18.326 74.7749 20.5815 74.7749C22.8371 74.7749 24.7746 73.9363 26.3939 72.2591C28.0712 70.6397 28.9098 68.7022 28.9098 66.4467V63.6706H73.3269V19.2534H62.2227V5.37305H28.9098ZM34.4619 10.9252H56.6705V24.8056H34.4619V10.9252ZM12.2533 19.2534H17.8055V58.1185H12.2533V19.2534ZM23.3576 24.8056H28.9098V30.3577H62.2227V24.8056H67.7748V58.1185H23.3576V24.8056ZM31.6858 35.9099V41.462H37.238V35.9099H31.6858ZM42.7901 35.9099V41.462H48.3423V35.9099H42.7901ZM53.8944 35.9099V41.462H59.4466V35.9099H53.8944ZM31.6858 47.0142V52.5663H37.238V47.0142H31.6858ZM42.7901 47.0142V52.5663H48.3423V47.0142H42.7901ZM53.8944 47.0142V52.5663H59.4466V47.0142H53.8944ZM17.8055 63.6706H23.3576V66.4467C23.3576 67.1985 23.0684 67.8636 22.4901 68.442C21.9696 68.9625 21.3334 69.2228 20.5815 69.2228C19.8297 69.2228 19.1646 68.9625 18.5862 68.442C18.0657 67.8636 17.8055 67.1985 17.8055 66.4467V63.6706Z" fill="black"/>
</svg>
