<svg width="20" height="13" viewBox="0 0 20 13" fill="none" xmlns="http://www.w3.org/2000/svg">
<path d="M2.13379 7.50039C2.72262 7.50065 3.2001 8.01493 3.2002 8.6498V10.9496C3.2002 11.5846 2.72268 12.0997 2.13379 12.1H1.06641C0.477422 12.0998 0 11.5846 0 10.9496V8.6498C9.79152e-05 8.01486 0.477483 7.50054 1.06641 7.50039H2.13379ZM7.43359 5.1C8.02258 5.10015 8.5 5.62275 8.5 6.26699V10.933C8.5 11.5772 8.02258 12.0998 7.43359 12.1H6.36621C5.77732 12.0997 5.2998 11.5772 5.2998 10.933V6.26699C5.2998 5.62282 5.77732 5.10027 6.36621 5.1H7.43359ZM12.833 2.50039C13.422 2.50039 13.9003 3.01564 13.9004 3.65176V10.9477C13.9004 11.5839 13.4221 12.1 12.833 12.1H11.7666C11.1775 12.1 10.7002 11.5839 10.7002 10.9477V3.65176C10.7003 3.01566 11.1776 2.50043 11.7666 2.50039H12.833ZM18.1338 0.0999985C18.7227 0.100258 19.2002 0.603838 19.2002 1.225V10.975C19.2002 11.5962 18.7227 12.0997 18.1338 12.1H17.0664C16.4774 12.0998 16 11.5962 16 10.975V1.225C16 0.60377 16.4774 0.100147 17.0664 0.0999985H18.1338Z" fill="white"/>
</svg>
