<svg width="115" height="22" viewBox="0 0 115 22" fill="none" xmlns="http://www.w3.org/2000/svg">
<g clip-path="url(#clip0_38_413)">
<path d="M105.378 1.5039L107.711 6.23183C107.873 6.56066 108.187 6.78852 108.55 6.84116L113.768 7.59938C114.682 7.73229 115.046 8.85515 114.385 9.49944L110.61 13.1796C110.347 13.4355 110.227 13.8045 110.29 14.1657L111.181 19.3622C111.337 20.2724 110.382 20.9663 109.564 20.5369L104.898 18.0836C104.573 17.9131 104.185 17.9131 103.861 18.0836L99.1939 20.5369C98.3766 20.9667 97.4212 20.2724 97.5774 19.3622L98.4685 14.1657C98.5307 13.8045 98.4107 13.4355 98.1483 13.1796L94.3728 9.49944C93.7117 8.85472 94.0763 7.73186 94.9903 7.59938L100.208 6.84116C100.571 6.78852 100.885 6.56066 101.047 6.23183L103.38 1.5039C103.789 0.675782 104.969 0.675782 105.378 1.5039Z" fill="#F9D4AB"/>
</g>
<g clip-path="url(#clip1_38_413)">
<path d="M82.1039 1.5039L84.4373 6.23183C84.5995 6.56066 84.9133 6.78852 85.2762 6.84116L90.4939 7.59938C91.4079 7.73229 91.7725 8.85515 91.1114 9.49944L87.3359 13.1796C87.0735 13.4355 86.9536 13.8045 87.0157 14.1657L87.9068 19.3622C88.063 20.2724 87.1076 20.9663 86.2903 20.5369L81.6236 18.0836C81.2991 17.9131 80.9112 17.9131 80.5867 18.0836L75.92 20.5369C75.1027 20.9667 74.1472 20.2724 74.3035 19.3622L75.1946 14.1657C75.2567 13.8045 75.1368 13.4355 74.8744 13.1796L71.0989 9.49944C70.4377 8.85472 70.8024 7.73186 71.7164 7.59938L76.9341 6.84116C77.297 6.78852 77.6108 6.56066 77.773 6.23183L80.1064 1.5039C80.5146 0.675782 81.6953 0.675782 82.1039 1.5039Z" fill="#FFA135"/>
</g>
<g clip-path="url(#clip2_38_413)">
<path d="M58.829 1.5039L61.1624 6.23183C61.3246 6.56066 61.6383 6.78852 62.0013 6.84116L67.219 7.59938C68.133 7.73229 68.4976 8.85515 67.8365 9.49944L64.061 13.1796C63.7986 13.4355 63.6787 13.8045 63.7408 14.1657L64.6319 19.3622C64.7881 20.2724 63.8327 20.9663 63.0154 20.5369L58.3487 18.0836C58.0242 17.9131 57.6363 17.9131 57.3118 18.0836L52.6451 20.5369C51.8278 20.9667 50.8723 20.2724 51.0286 19.3622L51.9197 14.1657C51.9818 13.8045 51.8619 13.4355 51.5995 13.1796L47.824 9.49944C47.1628 8.85472 47.5275 7.73186 48.4415 7.59938L53.6592 6.84116C54.0221 6.78852 54.3359 6.56066 54.4981 6.23183L56.8314 1.5039C57.2397 0.675782 58.4204 0.675782 58.829 1.5039Z" fill="#FFA135"/>
</g>
<g clip-path="url(#clip3_38_413)">
<path d="M35.5546 1.5039L37.8879 6.23183C38.0502 6.56066 38.3639 6.78852 38.7269 6.84116L43.9446 7.59938C44.8586 7.73229 45.2232 8.85515 44.5621 9.49944L40.7866 13.1796C40.5242 13.4355 40.4042 13.8045 40.4664 14.1657L41.3575 19.3622C41.5137 20.2724 40.5583 20.9663 39.741 20.5369L35.0743 18.0836C34.7498 17.9131 34.3619 17.9131 34.0373 18.0836L29.3707 20.5369C28.5534 20.9667 27.5979 20.2724 27.7541 19.3622L28.6453 14.1657C28.7074 13.8045 28.5874 13.4355 28.3251 13.1796L24.5495 9.49944C23.8884 8.85472 24.2531 7.73186 25.1671 7.59938L30.3848 6.84116C30.7477 6.78852 31.0615 6.56066 31.2237 6.23183L33.557 1.5039C33.9653 0.675782 35.146 0.675782 35.5546 1.5039Z" fill="#FFA135"/>
</g>
<g clip-path="url(#clip4_38_413)">
<path d="M12.2822 1.5039L14.6155 6.23183C14.7777 6.56066 15.0915 6.78852 15.4544 6.84116L20.6721 7.59938C21.5861 7.73229 21.9508 8.85515 21.2897 9.49944L17.5141 13.1796C17.2518 13.4355 17.1318 13.8045 17.1939 14.1657L18.0851 19.3622C18.2413 20.2724 17.2858 20.9663 16.4685 20.5369L11.8019 18.0836C11.4773 17.9131 11.0894 17.9131 10.7649 18.0836L6.09823 20.5369C5.28089 20.9667 4.32547 20.2724 4.48168 19.3622L5.37281 14.1657C5.43495 13.8045 5.31498 13.4355 5.05261 13.1796L1.27708 9.49944C0.615968 8.85472 0.980618 7.73186 1.89461 7.59938L7.11234 6.84116C7.47526 6.78852 7.78899 6.56066 7.95125 6.23183L10.2846 1.5039C10.6928 0.675782 11.8735 0.675782 12.2822 1.5039Z" fill="#FFA135"/>
</g>
<defs>
<clipPath id="clip0_38_413">
<rect width="20.6879" height="20.6879" fill="white" transform="translate(94.0347 0.430664)"/>
</clipPath>
<clipPath id="clip1_38_413">
<rect width="20.6879" height="20.6879" fill="white" transform="translate(70.7612 0.430664)"/>
</clipPath>
<clipPath id="clip2_38_413">
<rect width="20.6879" height="20.6879" fill="white" transform="translate(47.4863 0.430664)"/>
</clipPath>
<clipPath id="clip3_38_413">
<rect width="20.6879" height="20.6879" fill="white" transform="translate(24.2124 0.430664)"/>
</clipPath>
<clipPath id="clip4_38_413">
<rect width="20.6879" height="20.6879" fill="white" transform="translate(0.938965 0.430664)"/>
</clipPath>
</defs>
</svg>
