<svg width="114" height="22" viewBox="0 0 114 22" fill="none" xmlns="http://www.w3.org/2000/svg">
<g clip-path="url(#clip0_38_330)">
<path d="M104.605 1.5039L106.938 6.23183C107.1 6.56066 107.414 6.78852 107.777 6.84116L112.995 7.59938C113.909 7.73229 114.274 8.85515 113.612 9.49944L109.837 13.1796C109.575 13.4355 109.455 13.8045 109.517 14.1657L110.408 19.3622C110.564 20.2724 109.609 20.9663 108.791 20.5369L104.125 18.0836C103.8 17.9131 103.412 17.9131 103.088 18.0836L98.421 20.5369C97.6036 20.9667 96.6482 20.2724 96.8044 19.3622L97.6956 14.1657C97.7577 13.8045 97.6377 13.4355 97.3754 13.1796L93.5998 9.49944C92.9387 8.85472 93.3034 7.73186 94.2174 7.59938L99.4351 6.84116C99.798 6.78852 100.112 6.56066 100.274 6.23183L102.607 1.5039C103.016 0.675782 104.196 0.675782 104.605 1.5039Z" fill="#F9D4AB"/>
</g>
<g clip-path="url(#clip1_38_330)">
<path d="M81.331 1.5039L83.6643 6.23183C83.8266 6.56066 84.1403 6.78852 84.5032 6.84116L89.7209 7.59938C90.6349 7.73229 90.9996 8.85515 90.3385 9.49944L86.563 13.1796C86.3006 13.4355 86.1806 13.8045 86.2428 14.1657L87.1339 19.3622C87.2901 20.2724 86.3347 20.9663 85.5173 20.5369L80.8507 18.0836C80.5262 17.9131 80.1382 17.9131 79.8137 18.0836L75.1471 20.5369C74.3297 20.9667 73.3743 20.2724 73.5305 19.3622L74.4216 14.1657C74.4838 13.8045 74.3638 13.4355 74.1014 13.1796L70.3259 9.49944C69.6648 8.85472 70.0294 7.73186 70.9434 7.59938L76.1612 6.84116C76.5241 6.78852 76.8378 6.56066 77.0001 6.23183L79.3334 1.5039C79.7416 0.675782 80.9223 0.675782 81.331 1.5039Z" fill="#FFA135"/>
</g>
<g clip-path="url(#clip2_38_330)">
<path d="M58.0576 1.5039L60.3909 6.23183C60.5531 6.56066 60.8669 6.78852 61.2298 6.84116L66.4475 7.59938C67.3615 7.73229 67.7262 8.85515 67.065 9.49944L63.2895 13.1796C63.0271 13.4355 62.9072 13.8045 62.9693 14.1657L63.8604 19.3622C64.0167 20.2724 63.0612 20.9663 62.2439 20.5369L57.5773 18.0836C57.2527 17.9131 56.8648 17.9131 56.5403 18.0836L51.8736 20.5369C51.0563 20.9667 50.1009 20.2724 50.2571 19.3622L51.1482 14.1657C51.2103 13.8045 51.0904 13.4355 50.828 13.1796L47.0525 9.49944C46.3914 8.85472 46.756 7.73186 47.67 7.59938L52.8877 6.84116C53.2507 6.78852 53.5644 6.56066 53.7266 6.23183L56.06 1.5039C56.4682 0.675782 57.6489 0.675782 58.0576 1.5039Z" fill="#FFA135"/>
</g>
<g clip-path="url(#clip3_38_330)">
<path d="M34.7841 1.5039L37.1174 6.23183C37.2797 6.56066 37.5934 6.78852 37.9564 6.84116L43.1741 7.59938C44.0881 7.73229 44.4527 8.85515 43.7916 9.49944L40.0161 13.1796C39.7537 13.4355 39.6337 13.8045 39.6959 14.1657L40.587 19.3622C40.7432 20.2724 39.7878 20.9663 38.9705 20.5369L34.3038 18.0836C33.9793 17.9131 33.5913 17.9131 33.2668 18.0836L28.6002 20.5369C27.7828 20.9667 26.8274 20.2724 26.9836 19.3622L27.8748 14.1657C27.9369 13.8045 27.8169 13.4355 27.5546 13.1796L23.779 9.49944C23.1179 8.85472 23.4826 7.73186 24.3966 7.59938L29.6143 6.84116C29.9772 6.78852 30.2909 6.56066 30.4532 6.23183L32.7865 1.5039C33.1948 0.675782 34.3754 0.675782 34.7841 1.5039Z" fill="#FFA135"/>
</g>
<g clip-path="url(#clip4_38_330)">
<path d="M11.5097 1.5039L13.843 6.23183C14.0053 6.56066 14.319 6.78852 14.6819 6.84116L19.8997 7.59938C20.8137 7.73229 21.1783 8.85515 20.5172 9.49944L16.7417 13.1796C16.4793 13.4355 16.3593 13.8045 16.4215 14.1657L17.3126 19.3622C17.4688 20.2724 16.5134 20.9663 15.696 20.5369L11.0294 18.0836C10.7049 17.9131 10.3169 17.9131 9.99241 18.0836L5.32576 20.5369C4.50843 20.9667 3.55301 20.2724 3.70922 19.3622L4.60035 14.1657C4.66249 13.8045 4.54252 13.4355 4.28015 13.1796L0.504623 9.49944C-0.156493 8.85472 0.208157 7.73186 1.12215 7.59938L6.33988 6.84116C6.7028 6.78852 7.01653 6.56066 7.17879 6.23183L9.51211 1.5039C9.92035 0.675782 11.101 0.675782 11.5097 1.5039Z" fill="#FFA135"/>
</g>
<defs>
<clipPath id="clip0_38_330">
<rect width="20.6879" height="20.6879" fill="white" transform="translate(93.2622 0.430664)"/>
</clipPath>
<clipPath id="clip1_38_330">
<rect width="20.6879" height="20.6879" fill="white" transform="translate(69.9888 0.430664)"/>
</clipPath>
<clipPath id="clip2_38_330">
<rect width="20.6879" height="20.6879" fill="white" transform="translate(46.7148 0.430664)"/>
</clipPath>
<clipPath id="clip3_38_330">
<rect width="20.6879" height="20.6879" fill="white" transform="translate(23.4414 0.430664)"/>
</clipPath>
<clipPath id="clip4_38_330">
<rect width="20.6879" height="20.6879" fill="white" transform="translate(0.166992 0.430664)"/>
</clipPath>
</defs>
</svg>
