<svg width="26" height="26" viewBox="0 0 26 26" fill="none" xmlns="http://www.w3.org/2000/svg">
<path d="M12.9588 0.78125C6.18581 0.78125 0.675781 6.29157 0.675781 13.0646C0.675781 19.8378 6.18581 25.3482 12.9588 25.3482C19.7318 25.3482 25.2421 19.8378 25.2421 13.0646C25.2421 6.29157 19.7315 0.78125 12.9588 0.78125ZM12.9588 23.5723C7.16522 23.5723 2.45139 18.8584 2.45139 13.0646C2.45139 7.27068 7.16492 2.55715 12.9588 2.55715C18.7527 2.55715 23.4662 7.27068 23.4662 13.0646C23.4662 18.8584 18.7527 23.5723 12.9588 23.5723Z" fill="black"/>
<path d="M16.5129 14.1956C16.5082 14.1956 16.504 14.1956 16.4993 14.1956L13.8467 14.2352V7.29322C13.8467 6.80278 13.4492 6.40527 12.9588 6.40527C12.4683 6.40527 12.0708 6.80278 12.0708 7.29322V15.1368C12.0708 15.1386 12.0714 15.1403 12.0714 15.1421C12.0714 15.1451 12.0708 15.1477 12.0708 15.1501C12.0714 15.1862 12.0782 15.2202 12.0829 15.2549C12.0859 15.2765 12.0862 15.2987 12.0903 15.32C12.0983 15.3582 12.1116 15.3937 12.1244 15.4295C12.1309 15.4482 12.135 15.4677 12.1427 15.4854C12.1581 15.5219 12.1788 15.555 12.1987 15.589C12.2078 15.6041 12.2146 15.6207 12.2244 15.6355C12.2469 15.6684 12.2738 15.6977 12.3005 15.7276C12.3117 15.74 12.3209 15.7542 12.3327 15.7663C12.3615 15.7948 12.3937 15.8187 12.426 15.8433C12.439 15.8531 12.4505 15.8649 12.4639 15.8741C12.4988 15.8978 12.537 15.9164 12.5752 15.9348C12.5885 15.941 12.6003 15.9498 12.6139 15.9555C12.6583 15.9741 12.7057 15.9871 12.7536 15.9987C12.7625 16.0008 12.7708 16.0049 12.78 16.0067C12.8374 16.0182 12.8969 16.0247 12.9579 16.0247C12.9623 16.0247 12.967 16.0247 12.9715 16.0247L16.5256 15.9715C17.0158 15.9641 17.4074 15.5603 17.4003 15.0702C17.3935 14.5845 16.9971 14.1956 16.5129 14.1956Z" fill="black"/>
</svg>
