<svg width="373" height="35" viewBox="0 0 373 35" fill="none" xmlns="http://www.w3.org/2000/svg">
<line opacity="0.8" x1="2.22416" y1="14.1026" x2="2.22416" y2="21.2302" stroke="#F6CE3B" stroke-width="3.87899" stroke-linecap="round"/>
<line opacity="0.8" x1="9.98246" y1="14.1026" x2="9.98246" y2="21.2302" stroke="#F6CE3B" stroke-width="3.87899" stroke-linecap="round"/>
<line opacity="0.8" x1="17.7403" y1="8.26859" x2="17.7403" y2="27.0655" stroke="#F6CE3B" stroke-width="3.87899" stroke-linecap="round"/>
<line opacity="0.8" x1="25.4981" y1="8.26859" x2="25.4981" y2="27.0655" stroke="#F6CE3B" stroke-width="3.87899" stroke-linecap="round"/>
<line opacity="0.8" x1="33.2559" y1="9.7266" x2="33.2559" y2="25.6062" stroke="#F6CE3B" stroke-width="3.87899" stroke-linecap="round"/>
<line opacity="0.8" x1="41.0142" y1="11.1856" x2="41.0142" y2="24.1479" stroke="#F6CE3B" stroke-width="3.87899" stroke-linecap="round"/>
<line opacity="0.8" x1="48.772" y1="12.6446" x2="48.772" y2="22.6895" stroke="#F6CE3B" stroke-width="3.87899" stroke-linecap="round"/>
<line opacity="0.8" x1="56.5298" y1="13.3741" x2="56.5298" y2="21.9604" stroke="#F6CE3B" stroke-width="3.87899" stroke-linecap="round"/>
<line opacity="0.8" x1="64.2876" y1="13.3741" x2="64.2876" y2="21.9604" stroke="#F6CE3B" stroke-width="3.87899" stroke-linecap="round"/>
<line opacity="0.8" x1="72.0459" y1="13.3741" x2="72.0459" y2="21.9604" stroke="#F6CE3B" stroke-width="3.87899" stroke-linecap="round"/>
<line opacity="0.8" x1="79.8038" y1="13.3741" x2="79.8037" y2="21.9604" stroke="#F6CE3B" stroke-width="3.87899" stroke-linecap="round"/>
<line opacity="0.8" x1="87.5621" y1="13.3741" x2="87.562" y2="21.9604" stroke="#F6CE3B" stroke-width="3.87899" stroke-linecap="round"/>
<line opacity="0.8" x1="95.3199" y1="11.9151" x2="95.3199" y2="23.4187" stroke="#F6CE3B" stroke-width="3.87899" stroke-linecap="round"/>
<line opacity="0.8" x1="103.078" y1="11.9151" x2="103.078" y2="23.4187" stroke="#F6CE3B" stroke-width="3.87899" stroke-linecap="round"/>
<line opacity="0.8" x1="110.836" y1="11.9151" x2="110.836" y2="23.4187" stroke="#F6CE3B" stroke-width="3.87899" stroke-linecap="round"/>
<line opacity="0.8" x1="118.594" y1="8.26859" x2="118.594" y2="27.0655" stroke="#F6CE3B" stroke-width="3.87899" stroke-linecap="round"/>
<line opacity="0.8" x1="126.352" y1="8.26859" x2="126.352" y2="27.0655" stroke="#F6CE3B" stroke-width="3.87899" stroke-linecap="round"/>
<line opacity="0.8" x1="134.11" y1="8.26859" x2="134.11" y2="27.0655" stroke="#F6CE3B" stroke-width="3.87899" stroke-linecap="round"/>
<line opacity="0.8" x1="141.868" y1="8.26859" x2="141.868" y2="27.0655" stroke="#F6CE3B" stroke-width="3.87899" stroke-linecap="round"/>
<line opacity="0.8" x1="149.626" y1="2.43363" x2="149.626" y2="32.8998" stroke="#F6CE3B" stroke-width="3.87899" stroke-linecap="round"/>
<line opacity="0.8" x1="157.383" y1="6.08012" x2="157.383" y2="29.253" stroke="#F6CE3B" stroke-width="3.87899" stroke-linecap="round"/>
<line opacity="0.8" x1="165.142" y1="2.43363" x2="165.142" y2="32.8998" stroke="#F6CE3B" stroke-width="3.87899" stroke-linecap="round"/>
<line opacity="0.8" x1="172.899" y1="6.08012" x2="172.899" y2="29.253" stroke="#F6CE3B" stroke-width="3.87899" stroke-linecap="round"/>
<line opacity="0.8" x1="180.658" y1="2.43363" x2="180.658" y2="32.8998" stroke="#F6CE3B" stroke-width="3.87899" stroke-linecap="round"/>
<line opacity="0.8" x1="188.416" y1="3.89262" x2="188.416" y2="31.4415" stroke="#F6CE3B" stroke-width="3.87899" stroke-linecap="round"/>
<line opacity="0.8" x1="196.174" y1="8.26859" x2="196.174" y2="27.0655" stroke="#F6CE3B" stroke-width="3.87899" stroke-linecap="round"/>
<line opacity="0.8" x1="203.932" y1="8.26859" x2="203.932" y2="27.0655" stroke="#F6CE3B" stroke-width="3.87899" stroke-linecap="round"/>
<line opacity="0.8" x1="211.689" y1="3.89262" x2="211.689" y2="31.4415" stroke="#F6CE3B" stroke-width="3.87899" stroke-linecap="round"/>
<line opacity="0.8" x1="219.447" y1="9.7266" x2="219.447" y2="25.6062" stroke="#F6CE3B" stroke-width="3.87899" stroke-linecap="round"/>
<line opacity="0.8" x1="227.206" y1="7.5391" x2="227.206" y2="27.7947" stroke="#F6CE3B" stroke-width="3.87899" stroke-linecap="round"/>
<line opacity="0.8" x1="234.963" y1="7.5391" x2="234.963" y2="27.7947" stroke="#F6CE3B" stroke-width="3.87899" stroke-linecap="round"/>
<line opacity="0.8" x1="242.721" y1="9.7266" x2="242.721" y2="25.6062" stroke="#F6CE3B" stroke-width="3.87899" stroke-linecap="round"/>
<line opacity="0.8" x1="250.48" y1="7.5391" x2="250.48" y2="27.7947" stroke="#F6CE3B" stroke-width="3.87899" stroke-linecap="round"/>
<line opacity="0.8" x1="258.237" y1="11.1856" x2="258.237" y2="24.1479" stroke="#F6CE3B" stroke-width="3.87899" stroke-linecap="round"/>
<line opacity="0.8" x1="265.995" y1="4.62211" x2="265.995" y2="30.7123" stroke="#F6CE3B" stroke-width="3.87899" stroke-linecap="round"/>
<line opacity="0.8" x1="273.753" y1="2.43363" x2="273.753" y2="32.8998" stroke="#F6CE3B" stroke-width="3.87899" stroke-linecap="round"/>
<line opacity="0.8" x1="281.511" y1="4.62113" x2="281.511" y2="30.7114" stroke="#F6CE3B" stroke-width="3.87899" stroke-linecap="round"/>
<line opacity="0.8" x1="289.269" y1="9.7266" x2="289.269" y2="25.6062" stroke="#F6CE3B" stroke-width="3.87899" stroke-linecap="round"/>
<line opacity="0.8" x1="297.027" y1="11.9151" x2="297.027" y2="23.4187" stroke="#F6CE3B" stroke-width="3.87899" stroke-linecap="round"/>
<line opacity="0.8" x1="304.785" y1="9.7266" x2="304.785" y2="25.6062" stroke="#F6CE3B" stroke-width="3.87899" stroke-linecap="round"/>
<line opacity="0.8" x1="312.543" y1="6.80961" x2="312.543" y2="28.5238" stroke="#F6CE3B" stroke-width="3.87899" stroke-linecap="round"/>
<line opacity="0.8" x1="320.301" y1="11.1856" x2="320.301" y2="24.1479" stroke="#F6CE3B" stroke-width="3.87899" stroke-linecap="round"/>
<line opacity="0.1" x1="328.059" y1="11.1856" x2="328.059" y2="24.1479" stroke="#F6CE3B" stroke-width="3.87899" stroke-linecap="round"/>
<line opacity="0.1" x1="335.817" y1="14.1026" x2="335.817" y2="21.2302" stroke="#F6CE3B" stroke-width="3.87899" stroke-linecap="round"/>
<line opacity="0.1" x1="343.575" y1="9.7266" x2="343.575" y2="25.6062" stroke="#F6CE3B" stroke-width="3.87899" stroke-linecap="round"/>
<line opacity="0.1" x1="351.333" y1="2.43363" x2="351.333" y2="32.8998" stroke="#F6CE3B" stroke-width="3.87899" stroke-linecap="round"/>
<line opacity="0.1" x1="359.091" y1="8.26859" x2="359.091" y2="27.0655" stroke="#F6CE3B" stroke-width="3.87899" stroke-linecap="round"/>
<line opacity="0.1" x1="366.849" y1="14.1026" x2="366.849" y2="21.2302" stroke="#F6CE3B" stroke-width="3.87899" stroke-linecap="round"/>
<line opacity="0.1" x1="374.607" y1="14.1026" x2="374.607" y2="21.2302" stroke="#F6CE3B" stroke-width="3.87899" stroke-linecap="round"/>
</svg>
