<svg width="373" height="35" viewBox="0 0 373 35" fill="none" xmlns="http://www.w3.org/2000/svg">
<line opacity="0.8" x1="2.45316" y1="14.1026" x2="2.45316" y2="21.2302" stroke="#F6CE3B" stroke-width="3.87899" stroke-linecap="round"/>
<line opacity="0.8" x1="10.211" y1="14.1026" x2="10.211" y2="21.2302" stroke="#F6CE3B" stroke-width="3.87899" stroke-linecap="round"/>
<line opacity="0.8" x1="17.9693" y1="8.26859" x2="17.9693" y2="27.0655" stroke="#F6CE3B" stroke-width="3.87899" stroke-linecap="round"/>
<line opacity="0.8" x1="25.7271" y1="8.26859" x2="25.7271" y2="27.0655" stroke="#F6CE3B" stroke-width="3.87899" stroke-linecap="round"/>
<line opacity="0.8" x1="33.4854" y1="9.7266" x2="33.4854" y2="25.6062" stroke="#F6CE3B" stroke-width="3.87899" stroke-linecap="round"/>
<line opacity="0.8" x1="41.2432" y1="11.1856" x2="41.2432" y2="24.1479" stroke="#F6CE3B" stroke-width="3.87899" stroke-linecap="round"/>
<line opacity="0.8" x1="49.001" y1="12.6446" x2="49.001" y2="22.6895" stroke="#F6CE3B" stroke-width="3.87899" stroke-linecap="round"/>
<line opacity="0.8" x1="56.7588" y1="13.3741" x2="56.7588" y2="21.9604" stroke="#F6CE3B" stroke-width="3.87899" stroke-linecap="round"/>
<line opacity="0.8" x1="64.5171" y1="13.3741" x2="64.5171" y2="21.9604" stroke="#F6CE3B" stroke-width="3.87899" stroke-linecap="round"/>
<line opacity="0.8" x1="72.2749" y1="13.3741" x2="72.2749" y2="21.9604" stroke="#F6CE3B" stroke-width="3.87899" stroke-linecap="round"/>
<line opacity="0.8" x1="80.0332" y1="13.3741" x2="80.0332" y2="21.9604" stroke="#F6CE3B" stroke-width="3.87899" stroke-linecap="round"/>
<line opacity="0.8" x1="87.7911" y1="13.3741" x2="87.7911" y2="21.9604" stroke="#F6CE3B" stroke-width="3.87899" stroke-linecap="round"/>
<line opacity="0.8" x1="95.5489" y1="11.9151" x2="95.5489" y2="23.4187" stroke="#F6CE3B" stroke-width="3.87899" stroke-linecap="round"/>
<line opacity="0.8" x1="103.307" y1="11.9151" x2="103.307" y2="23.4187" stroke="#F6CE3B" stroke-width="3.87899" stroke-linecap="round"/>
<line opacity="0.8" x1="111.065" y1="11.9151" x2="111.065" y2="23.4187" stroke="#F6CE3B" stroke-width="3.87899" stroke-linecap="round"/>
<line opacity="0.8" x1="118.823" y1="8.26859" x2="118.823" y2="27.0655" stroke="#F6CE3B" stroke-width="3.87899" stroke-linecap="round"/>
<line opacity="0.8" x1="126.581" y1="8.26859" x2="126.581" y2="27.0655" stroke="#F6CE3B" stroke-width="3.87899" stroke-linecap="round"/>
<line opacity="0.8" x1="134.339" y1="8.26859" x2="134.339" y2="27.0655" stroke="#F6CE3B" stroke-width="3.87899" stroke-linecap="round"/>
<line opacity="0.8" x1="142.097" y1="8.26859" x2="142.097" y2="27.0655" stroke="#F6CE3B" stroke-width="3.87899" stroke-linecap="round"/>
<line opacity="0.8" x1="149.855" y1="2.43363" x2="149.855" y2="32.8998" stroke="#F6CE3B" stroke-width="3.87899" stroke-linecap="round"/>
<line opacity="0.8" x1="157.613" y1="6.08012" x2="157.613" y2="29.253" stroke="#F6CE3B" stroke-width="3.87899" stroke-linecap="round"/>
<line opacity="0.8" x1="165.371" y1="2.43363" x2="165.371" y2="32.8998" stroke="#F6CE3B" stroke-width="3.87899" stroke-linecap="round"/>
<line opacity="0.8" x1="173.129" y1="6.08012" x2="173.129" y2="29.253" stroke="#F6CE3B" stroke-width="3.87899" stroke-linecap="round"/>
<line opacity="0.8" x1="180.886" y1="2.43363" x2="180.886" y2="32.8998" stroke="#F6CE3B" stroke-width="3.87899" stroke-linecap="round"/>
<line opacity="0.8" x1="188.645" y1="3.89262" x2="188.645" y2="31.4415" stroke="#F6CE3B" stroke-width="3.87899" stroke-linecap="round"/>
<line opacity="0.8" x1="196.402" y1="8.26859" x2="196.402" y2="27.0655" stroke="#F6CE3B" stroke-width="3.87899" stroke-linecap="round"/>
<line opacity="0.8" x1="204.161" y1="8.26859" x2="204.161" y2="27.0655" stroke="#F6CE3B" stroke-width="3.87899" stroke-linecap="round"/>
<line opacity="0.8" x1="211.918" y1="3.89262" x2="211.919" y2="31.4415" stroke="#F6CE3B" stroke-width="3.87899" stroke-linecap="round"/>
<line opacity="0.8" x1="219.677" y1="9.7266" x2="219.677" y2="25.6062" stroke="#F6CE3B" stroke-width="3.87899" stroke-linecap="round"/>
<line opacity="0.8" x1="227.434" y1="7.5391" x2="227.434" y2="27.7947" stroke="#F6CE3B" stroke-width="3.87899" stroke-linecap="round"/>
<line opacity="0.8" x1="235.192" y1="7.5391" x2="235.192" y2="27.7947" stroke="#F6CE3B" stroke-width="3.87899" stroke-linecap="round"/>
<line opacity="0.8" x1="242.95" y1="9.7266" x2="242.95" y2="25.6062" stroke="#F6CE3B" stroke-width="3.87899" stroke-linecap="round"/>
<line opacity="0.8" x1="250.709" y1="7.5391" x2="250.709" y2="27.7947" stroke="#F6CE3B" stroke-width="3.87899" stroke-linecap="round"/>
<line opacity="0.8" x1="258.466" y1="11.1856" x2="258.466" y2="24.1479" stroke="#F6CE3B" stroke-width="3.87899" stroke-linecap="round"/>
<line opacity="0.8" x1="266.225" y1="4.62113" x2="266.225" y2="30.7114" stroke="#F6CE3B" stroke-width="3.87899" stroke-linecap="round"/>
<line opacity="0.8" x1="273.982" y1="2.43363" x2="273.982" y2="32.8998" stroke="#F6CE3B" stroke-width="3.87899" stroke-linecap="round"/>
<line opacity="0.8" x1="281.74" y1="4.62113" x2="281.74" y2="30.7114" stroke="#F6CE3B" stroke-width="3.87899" stroke-linecap="round"/>
<line opacity="0.8" x1="289.498" y1="9.7266" x2="289.498" y2="25.6062" stroke="#F6CE3B" stroke-width="3.87899" stroke-linecap="round"/>
<line opacity="0.8" x1="297.256" y1="11.9151" x2="297.256" y2="23.4187" stroke="#F6CE3B" stroke-width="3.87899" stroke-linecap="round"/>
<line opacity="0.8" x1="305.014" y1="9.7266" x2="305.014" y2="25.6062" stroke="#F6CE3B" stroke-width="3.87899" stroke-linecap="round"/>
<line opacity="0.8" x1="312.772" y1="6.80961" x2="312.772" y2="28.5238" stroke="#F6CE3B" stroke-width="3.87899" stroke-linecap="round"/>
<line opacity="0.8" x1="320.53" y1="11.1856" x2="320.53" y2="24.1479" stroke="#F6CE3B" stroke-width="3.87899" stroke-linecap="round"/>
<line opacity="0.1" x1="328.288" y1="11.1856" x2="328.288" y2="24.1479" stroke="#F6CE3B" stroke-width="3.87899" stroke-linecap="round"/>
<line opacity="0.1" x1="336.046" y1="14.1026" x2="336.046" y2="21.2302" stroke="#F6CE3B" stroke-width="3.87899" stroke-linecap="round"/>
<line opacity="0.1" x1="343.804" y1="9.7266" x2="343.804" y2="25.6062" stroke="#F6CE3B" stroke-width="3.87899" stroke-linecap="round"/>
<line opacity="0.1" x1="351.562" y1="2.43363" x2="351.562" y2="32.8998" stroke="#F6CE3B" stroke-width="3.87899" stroke-linecap="round"/>
<line opacity="0.1" x1="359.32" y1="8.26859" x2="359.32" y2="27.0655" stroke="#F6CE3B" stroke-width="3.87899" stroke-linecap="round"/>
<line opacity="0.1" x1="367.078" y1="14.1026" x2="367.078" y2="21.2302" stroke="#F6CE3B" stroke-width="3.87899" stroke-linecap="round"/>
<line opacity="0.1" x1="374.836" y1="14.1026" x2="374.836" y2="21.2302" stroke="#F6CE3B" stroke-width="3.87899" stroke-linecap="round"/>
</svg>
