<svg width="118" height="128" viewBox="0 0 118 128" fill="none" xmlns="http://www.w3.org/2000/svg">
<g opacity="0.8">
<path d="M83.7751 67.5365C82.4163 73.9151 75.1864 78.4969 60.7274 87.6594C45.001 97.6253 37.1379 102.608 30.7688 100.688C28.6116 100.038 26.6248 98.8951 24.9565 97.3436C20.0308 92.7645 20.0308 83.2566 20.0308 64.2419C20.0308 45.227 20.0308 35.7195 24.9565 31.1399C26.6248 29.5888 28.6116 28.4456 30.7688 27.7954C37.1379 25.8757 45.001 30.8585 60.7274 40.8242C75.1864 49.9871 82.4163 54.5687 83.7751 60.9473C84.2371 63.1179 84.2371 65.3659 83.7751 67.5365Z" fill="black" stroke="black" stroke-width="1.83117" stroke-linejoin="round"/>
<path d="M97.8311 27.167V101.316V27.167Z" fill="black"/>
<path d="M97.8311 27.167V101.316" stroke="black" stroke-width="1.83117" stroke-linecap="round"/>
</g>
</svg>
