<svg width="118" height="129" viewBox="0 0 118 129" fill="none" xmlns="http://www.w3.org/2000/svg">
<g opacity="0.8">
<path d="M39.6414 67.6419C40.8824 74.0946 47.4857 78.7297 60.6922 87.9987C75.056 98.0805 82.2382 103.121 88.0555 101.179C90.0258 100.521 91.8404 99.3651 93.3639 97.7956C97.8631 93.1632 97.8631 83.5448 97.8631 64.309C97.8631 45.073 97.8631 35.455 93.3639 30.8222C91.8404 29.2531 90.0258 28.0965 88.0555 27.4388C82.2382 25.4968 75.056 30.5375 60.6922 40.619C47.4857 49.8885 40.8824 54.5233 39.6414 60.9761C39.2191 63.1719 39.2191 65.4461 39.6414 67.6419Z" fill="black" stroke="black" stroke-width="2.21656" stroke-linejoin="round"/>
<path d="M19.8115 21.7012V106.914V21.7012Z" fill="black"/>
<path d="M19.8115 21.7012V106.914" stroke="black" stroke-width="2.21656" stroke-linecap="round"/>
</g>
</svg>
