<svg width="32" height="32" viewBox="0 0 32 32" fill="none" xmlns="http://www.w3.org/2000/svg">
<path d="M15.3646 3.54271C15.6622 2.65563 16.9169 2.65563 17.2144 3.54271L19.5707 10.5679C19.704 10.9654 20.0763 11.2332 20.4956 11.2332H28.0531C29.0056 11.2332 29.3935 12.4583 28.6146 13.0065L22.5542 17.272C22.2014 17.5203 22.0536 17.9709 22.1908 18.3799L24.5182 25.3188C24.8178 26.2122 23.8023 26.9691 23.0318 26.4268L16.851 22.0765C16.5142 21.8395 16.0648 21.8395 15.7281 22.0765L9.54727 26.4268C8.77674 26.9691 7.76128 26.2122 8.06091 25.3188L10.3882 18.3799C10.5254 17.9709 10.3776 17.5203 10.0248 17.272L3.9645 13.0065C3.18559 12.4583 3.57348 11.2332 4.52598 11.2332H12.0835C12.5027 11.2332 12.8751 10.9654 13.0084 10.5679L15.3646 3.54271Z" fill="#FFB100"/>
</svg>
