<svg width="32" height="31" viewBox="0 0 32 31" fill="none" xmlns="http://www.w3.org/2000/svg">
<path d="M14.7382 3.16381C15.0357 2.27672 16.2904 2.27672 16.588 3.16381L18.9442 10.189C19.0775 10.5865 19.4499 10.8543 19.8691 10.8543H27.4266C28.3791 10.8543 28.767 12.0794 27.9881 12.6276L21.9278 16.8931C21.575 17.1414 21.4272 17.592 21.5644 18.001L23.8917 24.9399C24.1913 25.8333 23.1758 26.5902 22.4053 26.0479L16.2245 21.6976C15.8878 21.4606 15.4384 21.4606 15.1016 21.6976L8.92081 26.0479C8.15028 26.5902 7.13482 25.8333 7.43444 24.9399L9.76176 18.001C9.89895 17.592 9.75116 17.1414 9.39835 16.8931L3.33803 12.6276C2.55912 12.0794 2.94702 10.8543 3.89951 10.8543H11.457C11.8763 10.8543 12.2486 10.5865 12.3819 10.189L14.7382 3.16381Z" fill="#FFB100"/>
</svg>
