<svg width="32" height="31" viewBox="0 0 32 31" fill="none" xmlns="http://www.w3.org/2000/svg">
<path d="M15.0145 3.04955C15.3121 2.16246 16.5668 2.16246 16.8643 3.04955L19.2206 10.0748C19.3539 10.4722 19.7262 10.7401 20.1455 10.7401H27.703C28.6555 10.7401 29.0434 11.9651 28.2645 12.5133L22.2041 16.7788C21.8513 17.0271 21.7035 17.4777 21.8407 17.8868L24.1681 24.8257C24.4677 25.719 23.4522 26.476 22.6817 25.9336L16.5009 21.5834C16.1641 21.3463 15.7147 21.3463 15.378 21.5834L9.19718 25.9336C8.42665 26.476 7.41118 25.719 7.71081 24.8257L10.0381 17.8868C10.1753 17.4777 10.0275 17.0271 9.67472 16.7788L3.6144 12.5133C2.83549 11.9651 3.22338 10.7401 4.17588 10.7401H11.7334C12.1526 10.7401 12.525 10.4722 12.6583 10.0748L15.0145 3.04955Z" fill="#FFB100"/>
</svg>
