<svg width="32" height="31" viewBox="0 0 32 31" fill="none" xmlns="http://www.w3.org/2000/svg">
<path d="M14.6908 3.42162C14.9883 2.53453 16.2431 2.53453 16.5406 3.42162L18.8969 10.4468C19.0302 10.8443 19.4025 11.1122 19.8217 11.1122H27.3793C28.3318 11.1122 28.7196 12.3372 27.9407 12.8854L21.8804 17.1509C21.5276 17.3992 21.3798 17.8498 21.517 18.2588L23.8443 25.1978C24.144 26.0911 23.1285 26.848 22.358 26.3057L16.1772 21.9554C15.8404 21.7184 15.391 21.7184 15.0542 21.9554L8.87344 26.3057C8.10292 26.848 7.08745 26.0911 7.38708 25.1978L9.7144 18.2588C9.85159 17.8498 9.7038 17.3992 9.35099 17.1509L3.29067 12.8854C2.51176 12.3372 2.89965 11.1122 3.85215 11.1122H11.4097C11.8289 11.1122 12.2012 10.8443 12.3346 10.4468L14.6908 3.42162Z" fill="#FFB100"/>
</svg>
