<svg width="32" height="32" viewBox="0 0 32 32" fill="none" xmlns="http://www.w3.org/2000/svg">
<path d="M14.9311 3.54271C15.2286 2.65563 16.4833 2.65563 16.7808 3.54271L19.1371 10.5679C19.2704 10.9654 19.6427 11.2332 20.062 11.2332H27.6195C28.572 11.2332 28.9599 12.4583 28.181 13.0065L22.1207 17.272C21.7678 17.5203 21.6201 17.9709 21.7572 18.3799L24.0846 25.3188C24.3842 26.2122 23.3687 26.9691 22.5982 26.4268L16.4174 22.0765C16.0806 21.8395 15.6312 21.8395 15.2945 22.0765L9.11368 26.4268C8.34315 26.9691 7.32769 26.2122 7.62731 25.3188L9.95463 18.3799C10.0918 17.9709 9.94403 17.5203 9.59122 17.272L3.5309 13.0065C2.75199 12.4583 3.13989 11.2332 4.09238 11.2332H11.6499C12.0691 11.2332 12.4415 10.9654 12.5748 10.5679L14.9311 3.54271Z" fill="#FFB100"/>
</svg>
