<svg width="32" height="31" viewBox="0 0 32 31" fill="none" xmlns="http://www.w3.org/2000/svg">
<path d="M15.1278 3.04076C15.4254 2.15367 16.6801 2.15367 16.9776 3.04076L19.3339 10.066C19.4672 10.4634 19.8395 10.7313 20.2588 10.7313H27.8163C28.7688 10.7313 29.1567 11.9563 28.3777 12.5046L22.3174 16.77C21.9646 17.0184 21.8168 17.4689 21.954 17.878L24.2813 24.8169C24.581 25.7102 23.5655 26.4672 22.795 25.9248L16.6142 21.5746C16.2774 21.3375 15.828 21.3375 15.4912 21.5746L9.31046 25.9248C8.53993 26.4672 7.52447 25.7102 7.82409 24.8169L10.1514 17.878C10.2886 17.4689 10.1408 17.0184 9.788 16.77L3.72768 12.5046C2.94877 11.9563 3.33667 10.7313 4.28916 10.7313H11.8467C12.2659 10.7313 12.6383 10.4634 12.7716 10.066L15.1278 3.04076Z" fill="#FFB100"/>
</svg>
