<svg width="32" height="31" viewBox="0 0 32 31" fill="none" xmlns="http://www.w3.org/2000/svg">
<path d="M15.2602 3.04076C15.5577 2.15367 16.8124 2.15367 17.1099 3.04076L19.4662 10.066C19.5995 10.4634 19.9719 10.7313 20.3911 10.7313H27.9486C28.9011 10.7313 29.289 11.9563 28.5101 12.5046L22.4498 16.77C22.0969 17.0184 21.9492 17.4689 22.0863 17.878L24.4137 24.8169C24.7133 25.7102 23.6978 26.4672 22.9273 25.9248L16.7465 21.5746C16.4097 21.3375 15.9604 21.3375 15.6236 21.5746L9.44278 25.9248C8.67225 26.4672 7.65679 25.7102 7.95642 24.8169L10.2837 17.878C10.4209 17.4689 10.2731 17.0184 9.92032 16.77L3.86 12.5046C3.0811 11.9563 3.46899 10.7313 4.42149 10.7313H11.979C12.3982 10.7313 12.7706 10.4634 12.9039 10.066L15.2602 3.04076Z" fill="#FFB100"/>
</svg>
