<svg width="33" height="31" viewBox="0 0 33 31" fill="none" xmlns="http://www.w3.org/2000/svg">
<path d="M15.4774 3.04076C15.775 2.15367 17.0297 2.15367 17.3272 3.04076L19.6835 10.066C19.8168 10.4634 20.1891 10.7313 20.6084 10.7313H28.1659C29.1184 10.7313 29.5063 11.9563 28.7274 12.5046L22.667 16.77C22.3142 17.0184 22.1664 17.4689 22.3036 17.878L24.6309 24.8169C24.9306 25.7102 23.9151 26.4672 23.1446 25.9248L16.9638 21.5746C16.627 21.3375 16.1776 21.3375 15.8408 21.5746L9.66007 25.9248C8.88954 26.4672 7.87407 25.7102 8.1737 24.8169L10.501 17.878C10.6382 17.4689 10.4904 17.0184 10.1376 16.77L4.07729 12.5046C3.29838 11.9563 3.68628 10.7313 4.63877 10.7313H12.1963C12.6155 10.7313 12.9879 10.4634 13.1212 10.066L15.4774 3.04076Z" fill="#FFB100"/>
</svg>
