<svg width="32" height="31" viewBox="0 0 32 31" fill="none" xmlns="http://www.w3.org/2000/svg">
<path d="M14.9076 3.42162C15.2051 2.53453 16.4599 2.53453 16.7574 3.42162L19.1137 10.4468C19.247 10.8443 19.6193 11.1122 20.0385 11.1122H27.5961C28.5485 11.1122 28.9364 12.3372 28.1575 12.8854L22.0972 17.1509C21.7444 17.3992 21.5966 17.8498 21.7338 18.2588L24.0611 25.1978C24.3608 26.0911 23.3453 26.848 22.5748 26.3057L16.394 21.9554C16.0572 21.7184 15.6078 21.7184 15.271 21.9554L9.09024 26.3057C8.31971 26.848 7.30425 26.0911 7.60388 25.1978L9.93119 18.2588C10.0684 17.8498 9.9206 17.3992 9.56778 17.1509L3.50746 12.8854C2.72856 12.3372 3.11645 11.1122 4.06895 11.1122H11.6265C12.0457 11.1122 12.418 10.8443 12.5513 10.4468L14.9076 3.42162Z" fill="#FFB100"/>
</svg>
