<svg width="49" height="53" viewBox="0 0 49 53" fill="none" xmlns="http://www.w3.org/2000/svg">
<path d="M48.617 29.2875C47.3798 34.0004 41.5334 37.3306 29.8399 43.9913C18.536 50.43 12.8842 53.6496 8.32939 52.3554C6.44629 51.8203 4.73056 50.8044 3.34683 49.4046C6.25848e-07 46.0189 0 39.4522 0 26.3188C0 13.1854 6.25848e-07 6.61865 3.34683 3.23307C4.73056 1.83337 6.44629 0.817217 8.32939 0.282209C12.8842 -1.01187 18.536 2.20752 29.8399 8.64635C41.5334 15.3069 47.3798 18.6372 48.617 23.35C49.1277 25.2955 49.1277 27.3421 48.617 29.2875Z" fill="white" stroke="#F6CE3B" stroke-width="2.80052" stroke-linejoin="round"/>
</svg>
