<svg width="18" height="13" viewBox="0 0 18 13" fill="none" xmlns="http://www.w3.org/2000/svg">
<path d="M6.86304 9.23418C8.25311 7.94465 10.2884 7.9447 11.6785 9.23418C11.7484 9.30354 11.7898 9.40129 11.7918 9.50469C11.7936 9.60801 11.7565 9.70767 11.6892 9.78008L9.51246 12.1893C9.44874 12.26 9.36189 12.2995 9.27125 12.2996C9.18048 12.2996 9.09287 12.2601 9.02906 12.1893L6.8523 9.78008C6.7851 9.70764 6.74783 9.608 6.74976 9.50469C6.75176 9.40132 6.7931 9.30348 6.86304 9.23418ZM3.83472 6.36113C6.8985 3.52403 11.643 3.52405 14.7068 6.36113C14.776 6.42766 14.8152 6.51929 14.8162 6.61504C14.8171 6.71068 14.7803 6.80301 14.7127 6.8709L13.4246 8.16582C13.2919 8.29777 13.0781 8.30026 12.9421 8.17168C11.936 7.26466 10.6266 6.76242 9.26929 6.7625C7.91294 6.7631 6.60478 7.2653 5.59937 8.17168C5.46337 8.30025 5.2496 8.29778 5.11695 8.16582L3.82984 6.8709C3.76191 6.80308 3.72444 6.71081 3.72535 6.61504C3.72626 6.51926 3.76552 6.42766 3.83472 6.36113ZM0.808357 3.4207C5.53937 -0.873002 13.0031 -0.873002 17.7341 3.4207C17.8023 3.48443 17.841 3.57117 17.8416 3.66191C17.8421 3.75283 17.8047 3.84054 17.7371 3.90508L16.4392 5.14531C16.3055 5.27241 16.0886 5.27348 15.9529 5.14824C14.1504 3.52548 11.7583 2.621 9.27125 2.6209C6.78391 2.6209 4.39136 3.52529 2.58863 5.14824C2.45299 5.27372 2.2359 5.27273 2.1023 5.14531L0.804451 3.90508C0.736843 3.84049 0.699327 3.75285 0.699959 3.66191C0.700603 3.57098 0.739857 3.48443 0.808357 3.4207Z" fill="white"/>
</svg>
