<svg width="26" height="26" viewBox="0 0 26 26" fill="none" xmlns="http://www.w3.org/2000/svg">
<path d="M13.0892 0.78125C6.31618 0.78125 0.806152 6.29157 0.806152 13.0646C0.806152 19.8378 6.31618 25.3482 13.0892 25.3482C19.8622 25.3482 25.3725 19.8378 25.3725 13.0646C25.3725 6.29157 19.8619 0.78125 13.0892 0.78125ZM13.0892 23.5723C7.29559 23.5723 2.58176 18.8584 2.58176 13.0646C2.58176 7.27068 7.29529 2.55715 13.0892 2.55715C18.883 2.55715 23.5966 7.27068 23.5966 13.0646C23.5966 18.8584 18.883 23.5723 13.0892 23.5723Z" fill="black"/>
<path d="M16.6428 14.1956C16.6381 14.1956 16.6339 14.1956 16.6292 14.1956L13.9766 14.2352V7.29322C13.9766 6.80278 13.5791 6.40527 13.0886 6.40527C12.5982 6.40527 12.2007 6.80278 12.2007 7.29322V15.1368C12.2007 15.1386 12.2013 15.1403 12.2013 15.1421C12.2013 15.1451 12.2007 15.1477 12.2007 15.1501C12.2013 15.1862 12.2081 15.2202 12.2128 15.2549C12.2158 15.2765 12.2161 15.2987 12.2202 15.32C12.2282 15.3582 12.2415 15.3937 12.2543 15.4295C12.2608 15.4482 12.2649 15.4677 12.2726 15.4854C12.288 15.5219 12.3087 15.555 12.3285 15.589C12.3377 15.6041 12.3445 15.6207 12.3543 15.6355C12.3768 15.6684 12.4037 15.6977 12.4304 15.7276C12.4416 15.74 12.4508 15.7542 12.4626 15.7663C12.4913 15.7948 12.5236 15.8187 12.5559 15.8433C12.5689 15.8531 12.5804 15.8649 12.5937 15.8741C12.6287 15.8978 12.6669 15.9164 12.705 15.9348C12.7184 15.941 12.7302 15.9498 12.7438 15.9555C12.7882 15.9741 12.8356 15.9871 12.8835 15.9987C12.8924 16.0008 12.9007 16.0049 12.9099 16.0067C12.9673 16.0182 13.0268 16.0247 13.0877 16.0247C13.0922 16.0247 13.0969 16.0247 13.1014 16.0247L16.6555 15.9715C17.1457 15.9641 17.5373 15.5603 17.5302 15.0702C17.5234 14.5845 17.127 14.1956 16.6428 14.1956Z" fill="black"/>
</svg>
