<svg width="122" height="173" viewBox="0 0 122 173" fill="none" xmlns="http://www.w3.org/2000/svg">
<path d="M101.821 159.329L59.8754 170.474L57.9893 161.063C57.5561 158.882 58.7294 156.711 60.6245 156.202L95.7112 146.875C97.6063 146.376 99.4924 147.727 99.9346 149.908L101.821 159.329Z" stroke="#F6CE3B" stroke-width="3.87899" stroke-miterlimit="10" stroke-linecap="round"/>
<path d="M88.0332 108.725C106.522 91.5674 109.425 60.408 94.5178 39.1284C79.6106 17.8489 52.5381 14.5074 34.0496 31.665C15.5611 48.8225 12.6579 79.982 27.5651 101.262C42.4722 122.541 69.5447 125.883 88.0332 108.725Z" stroke="#F6CE3B" stroke-width="3.87899" stroke-miterlimit="10"/>
<path d="M81.0551 113.982L40.9507 26.4215L35.9423 15.7959C9.79867 31.6564 -0.218428 68.9032 13.5618 98.9935C27.342 129.084 59.7034 140.613 85.847 124.753L80.9468 114.054" stroke="#F6CE3B" stroke-width="3.87899" stroke-miterlimit="10" stroke-linecap="round" stroke-linejoin="round"/>
<path d="M49.7895 45.6083C62.9191 37.6407 71.5898 26.8748 69.156 21.5618C66.7222 16.2489 54.1055 18.4009 40.9759 26.3684C27.8463 34.3359 19.1756 45.1019 21.6094 50.4149C24.0432 55.7278 36.6599 53.5758 49.7895 45.6083Z" stroke="#F6CE3B" stroke-width="3.87899" stroke-miterlimit="10"/>
<path d="M52.8726 118.791C62.1406 120.848 72.0585 119.446 81.0558 113.982C90.0531 108.519 96.6679 99.8979 100.431 89.937C91.163 87.8805 81.2453 89.2827 72.248 94.7461C63.2416 100.209 56.6357 108.83 52.8726 118.791Z" stroke="#F6CE3B" stroke-width="3.87899" stroke-miterlimit="10"/>
<path d="M81.0887 113.928C91.5906 107.556 91.1249 82.7877 80.0485 58.608C68.972 34.4283 51.4792 19.9931 40.9773 26.366C30.4754 32.739 30.9412 57.5068 42.0176 81.6865C53.0941 105.866 70.5868 120.301 81.0887 113.928Z" stroke="#F6CE3B" stroke-width="3.87899" stroke-miterlimit="10"/>
<path d="M22.9658 93.2805L99.0412 47.1221" stroke="#F6CE3B" stroke-width="3.87899" stroke-miterlimit="10"/>
<path d="M73.4932 130.143L77.9323 151.456" stroke="#F6CE3B" stroke-width="3.87899" stroke-miterlimit="10"/>
<path d="M54.8394 172.456L108.309 157.696" stroke="#F6CE3B" stroke-width="3.87899" stroke-miterlimit="10" stroke-linecap="round"/>
</svg>
