<svg width="220" height="268" viewBox="0 0 220 268" fill="none" xmlns="http://www.w3.org/2000/svg">
<path fill-rule="evenodd" clip-rule="evenodd" d="M21.5016 109.229C22.7381 110.622 24.7706 110.52 26.0798 109.024C41.7576 91.6559 58.0002 82.4993 74.3149 81.6499C90.2009 80.8253 106.014 88.11 121.3 103.169C124.699 106.453 129.901 113.365 134.414 121.589C130.231 128.337 127.344 136.247 125.813 143.82C123.553 155.004 124.667 165.163 127.713 170.097C129.401 172.829 131.632 174.457 134.279 175.069C137.666 175.846 142.329 174.853 147.804 169.46C155.358 161.986 157.441 151.654 155.575 140.445C154.588 134.552 152.429 128.412 149.688 122.538C153.15 119.315 157.398 117.363 162.487 117.808C173.259 118.666 181.069 128.541 186.486 140.308C191.185 150.486 196.763 165.576 194.818 177.815C194.159 181.974 192.479 185.592 195.355 188.858C199.757 193.913 204.089 188.334 205.001 182.621C206.955 170.349 203.592 155.79 200.178 144.672C193.914 124.212 181.572 106.072 164.25 104.18C156.129 103.336 149.137 106.095 143.397 110.94C138.323 102.67 132.788 95.8797 129.125 92.5062C110.991 76.1638 92.4725 68.9568 74.2971 70.8712C56.1401 72.7728 38.2674 83.674 21.6311 103.974C20.3317 105.491 20.265 107.835 21.5016 109.229ZM141.371 137.758C142.402 141.158 143.069 144.513 143.199 147.722C143.36 151.804 142.562 155.626 139.706 158.431C139.222 158.899 138.631 159.55 138.147 160.018C137.834 158.611 137.303 155.84 137.361 153.528C137.511 148.367 138.711 142.186 140.928 136.386C141.107 136.857 141.248 137.301 141.371 137.758Z" fill="#4D2C5E"/>
<path fill-rule="evenodd" clip-rule="evenodd" d="M138.078 161.348C137.789 161.175 137.511 161.068 137.525 161.332C137.549 161.663 137.746 161.601 138.078 161.348Z" fill="#4D2C5E"/>
<path fill-rule="evenodd" clip-rule="evenodd" d="M30.4219 97.0285C32.0038 93.1947 33.5431 89.1211 34.6693 85.2514C36.4042 79.2137 37.2325 73.7195 36.0639 69.789C35.7209 67.819 34.0131 66.6543 32.2803 67.2019C30.5377 67.7293 29.4062 69.7732 29.7675 71.7306C29.8275 72.7117 29.4987 73.7453 29.1822 74.9049C28.4567 77.6378 26.9268 80.5209 25.263 83.6309C23.1363 87.5977 20.6013 91.5766 18.4307 95.2509C16.4561 98.5748 14.8009 101.652 13.734 104.082C12.0496 107.905 11.8727 111.068 12.1754 112.904C12.2609 113.383 15.5448 120.431 21.6008 117.336C23.7661 116.222 29.1432 113.084 29.4088 112.928C32.6462 110.806 38.657 106.962 44.3366 104.853C46.1316 104.182 47.8631 103.582 49.4291 103.445C49.5072 103.606 49.5852 103.768 49.6815 103.917C51.0727 106.241 53.8965 106.691 56.0287 104.954C57.207 104.115 58.7784 101.822 59.2204 100.469C60.0691 97.8393 59.269 95.7805 57.2066 94.1336C54.3968 91.8983 50.2531 91.3888 45.5602 92.011C40.6271 92.6909 34.9962 94.9006 30.4219 97.0285ZM24.8767 109.296C24.5052 110.09 24.3701 110.667 24.8369 110.776C25.3598 110.9 25.039 109.883 24.8767 109.296Z" fill="#4D2C5E"/>
</svg>
