<svg width="147" height="704" viewBox="0 0 147 704" fill="none" xmlns="http://www.w3.org/2000/svg">
<rect opacity="0.9" x="0.19873" y="0.572266" width="146.108" height="148.694" rx="73.0542" fill="#F8D862"/>
<path d="M97.8839 683.646C96.8129 687.726 91.7517 690.609 81.6288 696.375C71.8432 701.948 66.9505 704.736 63.0075 703.615C61.3773 703.152 59.892 702.273 58.6942 701.061C55.7969 698.13 55.7969 692.445 55.7969 681.076C55.7969 669.706 55.7969 664.022 58.6942 661.091C59.892 659.879 61.3773 658.999 63.0075 658.536C66.9505 657.416 71.8432 660.203 81.6288 665.777C91.7517 671.543 96.8129 674.426 97.8839 678.506C98.326 680.19 98.326 681.962 97.8839 683.646Z" fill="white" stroke="white" stroke-width="2.42437" stroke-linejoin="round"/>
</svg>
