<svg width="115" height="22" viewBox="0 0 115 22" fill="none" xmlns="http://www.w3.org/2000/svg">
<g clip-path="url(#clip0_38_221)">
<path d="M105.248 1.5039L107.581 6.23183C107.744 6.56066 108.057 6.78852 108.42 6.84116L113.638 7.59938C114.552 7.73229 114.917 8.85515 114.255 9.49944L110.48 13.1796C110.218 13.4355 110.098 13.8045 110.16 14.1657L111.051 19.3622C111.207 20.2724 110.252 20.9663 109.434 20.5369L104.768 18.0836C104.443 17.9131 104.055 17.9131 103.731 18.0836L99.064 20.5369C98.2467 20.9667 97.2913 20.2724 97.4475 19.3622L98.3386 14.1657C98.4008 13.8045 98.2808 13.4355 98.0184 13.1796L94.2429 9.49944C93.5818 8.85472 93.9464 7.73186 94.8604 7.59938L100.078 6.84116C100.441 6.78852 100.755 6.56066 100.917 6.23183L103.25 1.5039C103.659 0.675782 104.839 0.675782 105.248 1.5039Z" fill="#F9D4AB"/>
</g>
<g clip-path="url(#clip1_38_221)">
<path d="M81.9736 1.5039L84.3069 6.23183C84.4692 6.56066 84.7829 6.78852 85.1458 6.84116L90.3635 7.59938C91.2775 7.73229 91.6422 8.85515 90.9811 9.49944L87.2055 13.1796C86.9432 13.4355 86.8232 13.8045 86.8853 14.1657L87.7765 19.3622C87.9327 20.2724 86.9772 20.9663 86.1599 20.5369L81.4933 18.0836C81.1688 17.9131 80.7808 17.9131 80.4563 18.0836L75.7896 20.5369C74.9723 20.9667 74.0169 20.2724 74.1731 19.3622L75.0642 14.1657C75.1264 13.8045 75.0064 13.4355 74.744 13.1796L70.9685 9.49944C70.3074 8.85472 70.672 7.73186 71.586 7.59938L76.8037 6.84116C77.1667 6.78852 77.4804 6.56066 77.6427 6.23183L79.976 1.5039C80.3842 0.675782 81.5649 0.675782 81.9736 1.5039Z" fill="#FFA135"/>
</g>
<g clip-path="url(#clip2_38_221)">
<path d="M58.7001 1.5039L61.0335 6.23183C61.1957 6.56066 61.5094 6.78852 61.8724 6.84116L67.0901 7.59938C68.0041 7.73229 68.3687 8.85515 67.7076 9.49944L63.9321 13.1796C63.6697 13.4355 63.5498 13.8045 63.6119 14.1657L64.503 19.3622C64.6592 20.2724 63.7038 20.9663 62.8865 20.5369L58.2198 18.0836C57.8953 17.9131 57.5074 17.9131 57.1828 18.0836L52.5162 20.5369C51.6989 20.9667 50.7434 20.2724 50.8997 19.3622L51.7908 14.1657C51.8529 13.8045 51.733 13.4355 51.4706 13.1796L47.6951 9.49944C47.0339 8.85472 47.3986 7.73186 48.3126 7.59938L53.5303 6.84116C53.8932 6.78852 54.207 6.56066 54.3692 6.23183L56.7025 1.5039C57.1108 0.675782 58.2915 0.675782 58.7001 1.5039Z" fill="#FFA135"/>
</g>
<g clip-path="url(#clip3_38_221)">
<path d="M35.4257 1.5039L37.759 6.23183C37.9213 6.56066 38.235 6.78852 38.598 6.84116L43.8157 7.59938C44.7297 7.73229 45.0943 8.85515 44.4332 9.49944L40.6577 13.1796C40.3953 13.4355 40.2753 13.8045 40.3375 14.1657L41.2286 19.3622C41.3848 20.2724 40.4294 20.9663 39.6121 20.5369L34.9454 18.0836C34.6209 17.9131 34.2329 17.9131 33.9084 18.0836L29.2418 20.5369C28.4244 20.9667 27.469 20.2724 27.6252 19.3622L28.5164 14.1657C28.5785 13.8045 28.4585 13.4355 28.1962 13.1796L24.4206 9.49944C23.7595 8.85472 24.1242 7.73186 25.0382 7.59938L30.2559 6.84116C30.6188 6.78852 30.9325 6.56066 31.0948 6.23183L33.4281 1.5039C33.8364 0.675782 35.0171 0.675782 35.4257 1.5039Z" fill="#FFA135"/>
</g>
<g clip-path="url(#clip4_38_221)">
<path d="M12.1523 1.5039L14.4856 6.23183C14.6479 6.56066 14.9616 6.78852 15.3245 6.84116L20.5422 7.59938C21.4562 7.73229 21.8209 8.85515 21.1598 9.49944L17.3842 13.1796C17.1219 13.4355 17.0019 13.8045 17.064 14.1657L17.9552 19.3622C18.1114 20.2724 17.156 20.9663 16.3386 20.5369L11.672 18.0836C11.3475 17.9131 10.9595 17.9131 10.635 18.0836L5.96834 20.5369C5.15101 20.9667 4.19558 20.2724 4.3518 19.3622L5.24293 14.1657C5.30507 13.8045 5.1851 13.4355 4.92273 13.1796L1.1472 9.49944C0.486086 8.85472 0.850735 7.73186 1.76473 7.59938L6.98246 6.84116C7.34538 6.78852 7.65911 6.56066 7.82137 6.23183L10.1547 1.5039C10.5629 0.675782 11.7436 0.675782 12.1523 1.5039Z" fill="#FFA135"/>
</g>
<defs>
<clipPath id="clip0_38_221">
<rect width="20.6879" height="20.6879" fill="white" transform="translate(93.9053 0.430664)"/>
</clipPath>
<clipPath id="clip1_38_221">
<rect width="20.6879" height="20.6879" fill="white" transform="translate(70.6309 0.430664)"/>
</clipPath>
<clipPath id="clip2_38_221">
<rect width="20.6879" height="20.6879" fill="white" transform="translate(47.3574 0.430664)"/>
</clipPath>
<clipPath id="clip3_38_221">
<rect width="20.6879" height="20.6879" fill="white" transform="translate(24.083 0.430664)"/>
</clipPath>
<clipPath id="clip4_38_221">
<rect width="20.6879" height="20.6879" fill="white" transform="translate(0.80957 0.430664)"/>
</clipPath>
</defs>
</svg>
