<svg width="25" height="26" viewBox="0 0 25 26" fill="none" xmlns="http://www.w3.org/2000/svg">
<path d="M12.3167 0.78125C5.54372 0.78125 0.0336914 6.29157 0.0336914 13.0646C0.0336914 19.8378 5.54372 25.3482 12.3167 25.3482C19.0897 25.3482 24.6 19.8378 24.6 13.0646C24.6 6.29157 19.0894 0.78125 12.3167 0.78125ZM12.3167 23.5723C6.52313 23.5723 1.8093 18.8584 1.8093 13.0646C1.8093 7.27068 6.52283 2.55715 12.3167 2.55715C18.1106 2.55715 22.8241 7.27068 22.8241 13.0646C22.8241 18.8584 18.1106 23.5723 12.3167 23.5723Z" fill="black"/>
<path d="M15.8703 14.1956C15.8656 14.1956 15.8615 14.1956 15.8567 14.1956L13.2041 14.2352V7.29322C13.2041 6.80278 12.8066 6.40527 12.3162 6.40527C11.8257 6.40527 11.4282 6.80278 11.4282 7.29322V15.1368C11.4282 15.1386 11.4288 15.1403 11.4288 15.1421C11.4288 15.1451 11.4282 15.1477 11.4282 15.1501C11.4288 15.1862 11.4356 15.2202 11.4404 15.2549C11.4433 15.2765 11.4436 15.2987 11.4478 15.32C11.4557 15.3582 11.4691 15.3937 11.4818 15.4295C11.4883 15.4482 11.4925 15.4677 11.5001 15.4854C11.5155 15.5219 11.5363 15.555 11.5561 15.589C11.5653 15.6041 11.5721 15.6207 11.5818 15.6355C11.6043 15.6684 11.6313 15.6977 11.6579 15.7276C11.6692 15.74 11.6783 15.7542 11.6902 15.7663C11.7189 15.7948 11.7511 15.8187 11.7834 15.8433C11.7964 15.8531 11.808 15.8649 11.8213 15.8741C11.8562 15.8978 11.8944 15.9164 11.9326 15.9348C11.9459 15.941 11.9577 15.9498 11.9714 15.9555C12.0157 15.9741 12.0631 15.9871 12.1111 15.9987C12.1199 16.0008 12.1282 16.0049 12.1374 16.0067C12.1948 16.0182 12.2543 16.0247 12.3153 16.0247C12.3197 16.0247 12.3245 16.0247 12.3289 16.0247L15.8831 15.9715C16.3732 15.9641 16.7648 15.5603 16.7577 15.0702C16.7509 14.5845 16.3546 14.1956 15.8703 14.1956Z" fill="black"/>
</svg>
