<svg width="133" height="134" viewBox="0 0 133 134" fill="none" xmlns="http://www.w3.org/2000/svg">
<path d="M99.1278 127.815L9.63053 97.0448C3.12136 94.8095 -0.573246 86.9248 1.36888 79.433L19.2425 10.5398C21.1847 3.04799 28.0352 -1.20435 34.5444 1.03096L124.042 31.8015C130.551 34.0368 134.245 41.9216 132.303 49.4134L114.43 118.307C112.48 125.79 105.629 130.051 99.1278 127.815Z" stroke="#F6CE3B" stroke-width="5.17198" stroke-miterlimit="10" stroke-linecap="round"/>
<path d="M3.47803 71.2861L116.539 110.16" stroke="#F6CE3B" stroke-width="5.17198" stroke-miterlimit="10" stroke-linecap="round"/>
<path d="M60.2853 101.999C59.7997 103.862 58.0852 104.924 56.4617 104.367C54.8382 103.81 53.9127 101.843 54.3982 99.9799C54.8838 98.117 56.5983 97.055 58.2218 97.6121C59.8453 98.1692 60.7708 100.137 60.2853 101.999Z" fill="#F9DC72"/>
<path d="M67.063 116.802L41.7148 108.088L38.2995 121.249L63.6476 129.963L67.063 116.802Z" stroke="#F6CE3B" stroke-width="5.17198" stroke-miterlimit="10" stroke-linecap="round"/>
<path d="M28.9004 118.77L72.659 133.814" stroke="#F6CE3B" stroke-width="5.17198" stroke-miterlimit="10" stroke-linecap="round"/>
</svg>
