<svg width="373" height="35" viewBox="0 0 373 35" fill="none" xmlns="http://www.w3.org/2000/svg">
<line opacity="0.8" x1="2.04496" y1="14.1026" x2="2.04496" y2="21.2302" stroke="#F6CE3B" stroke-width="3.87899" stroke-linecap="round"/>
<line opacity="0.8" x1="9.80326" y1="14.1026" x2="9.80326" y2="21.2302" stroke="#F6CE3B" stroke-width="3.87899" stroke-linecap="round"/>
<line opacity="0.8" x1="17.5606" y1="8.26859" x2="17.5606" y2="27.0655" stroke="#F6CE3B" stroke-width="3.87899" stroke-linecap="round"/>
<line opacity="0.8" x1="25.3189" y1="8.26859" x2="25.3189" y2="27.0655" stroke="#F6CE3B" stroke-width="3.87899" stroke-linecap="round"/>
<line opacity="0.8" x1="33.0767" y1="9.7266" x2="33.0767" y2="25.6062" stroke="#F6CE3B" stroke-width="3.87899" stroke-linecap="round"/>
<line opacity="0.8" x1="40.835" y1="11.1856" x2="40.835" y2="24.1479" stroke="#F6CE3B" stroke-width="3.87899" stroke-linecap="round"/>
<line opacity="0.8" x1="48.5928" y1="12.6446" x2="48.5928" y2="22.6895" stroke="#F6CE3B" stroke-width="3.87899" stroke-linecap="round"/>
<line opacity="0.8" x1="56.3511" y1="13.3741" x2="56.3511" y2="21.9604" stroke="#F6CE3B" stroke-width="3.87899" stroke-linecap="round"/>
<line opacity="0.8" x1="64.1084" y1="13.3741" x2="64.1084" y2="21.9604" stroke="#F6CE3B" stroke-width="3.87899" stroke-linecap="round"/>
<line opacity="0.8" x1="71.8667" y1="13.3741" x2="71.8667" y2="21.9604" stroke="#F6CE3B" stroke-width="3.87899" stroke-linecap="round"/>
<line opacity="0.8" x1="79.6246" y1="13.3741" x2="79.6245" y2="21.9604" stroke="#F6CE3B" stroke-width="3.87899" stroke-linecap="round"/>
<line opacity="0.8" x1="87.3829" y1="13.3741" x2="87.3829" y2="21.9604" stroke="#F6CE3B" stroke-width="3.87899" stroke-linecap="round"/>
<line opacity="0.8" x1="95.1407" y1="11.9151" x2="95.1407" y2="23.4187" stroke="#F6CE3B" stroke-width="3.87899" stroke-linecap="round"/>
<line opacity="0.8" x1="102.899" y1="11.9151" x2="102.899" y2="23.4187" stroke="#F6CE3B" stroke-width="3.87899" stroke-linecap="round"/>
<line opacity="0.8" x1="110.656" y1="11.9151" x2="110.656" y2="23.4187" stroke="#F6CE3B" stroke-width="3.87899" stroke-linecap="round"/>
<line opacity="0.8" x1="118.415" y1="8.26859" x2="118.415" y2="27.0655" stroke="#F6CE3B" stroke-width="3.87899" stroke-linecap="round"/>
<line opacity="0.8" x1="126.172" y1="8.26859" x2="126.172" y2="27.0655" stroke="#F6CE3B" stroke-width="3.87899" stroke-linecap="round"/>
<line opacity="0.8" x1="133.931" y1="8.26859" x2="133.931" y2="27.0655" stroke="#F6CE3B" stroke-width="3.87899" stroke-linecap="round"/>
<line opacity="0.8" x1="141.689" y1="8.26859" x2="141.689" y2="27.0655" stroke="#F6CE3B" stroke-width="3.87899" stroke-linecap="round"/>
<line opacity="0.8" x1="149.447" y1="2.43363" x2="149.447" y2="32.8998" stroke="#F6CE3B" stroke-width="3.87899" stroke-linecap="round"/>
<line opacity="0.8" x1="157.204" y1="6.08012" x2="157.204" y2="29.253" stroke="#F6CE3B" stroke-width="3.87899" stroke-linecap="round"/>
<line opacity="0.8" x1="164.962" y1="2.43363" x2="164.962" y2="32.8998" stroke="#F6CE3B" stroke-width="3.87899" stroke-linecap="round"/>
<line opacity="0.8" x1="172.72" y1="6.08012" x2="172.72" y2="29.253" stroke="#F6CE3B" stroke-width="3.87899" stroke-linecap="round"/>
<line opacity="0.8" x1="180.479" y1="2.43363" x2="180.479" y2="32.8998" stroke="#F6CE3B" stroke-width="3.87899" stroke-linecap="round"/>
<line opacity="0.8" x1="188.236" y1="3.89262" x2="188.236" y2="31.4415" stroke="#F6CE3B" stroke-width="3.87899" stroke-linecap="round"/>
<line opacity="0.8" x1="195.995" y1="8.26859" x2="195.995" y2="27.0655" stroke="#F6CE3B" stroke-width="3.87899" stroke-linecap="round"/>
<line opacity="0.8" x1="203.752" y1="8.26859" x2="203.752" y2="27.0655" stroke="#F6CE3B" stroke-width="3.87899" stroke-linecap="round"/>
<line opacity="0.8" x1="211.51" y1="3.89262" x2="211.51" y2="31.4415" stroke="#F6CE3B" stroke-width="3.87899" stroke-linecap="round"/>
<line opacity="0.8" x1="219.268" y1="9.7266" x2="219.268" y2="25.6062" stroke="#F6CE3B" stroke-width="3.87899" stroke-linecap="round"/>
<line opacity="0.8" x1="227.026" y1="7.5391" x2="227.026" y2="27.7947" stroke="#F6CE3B" stroke-width="3.87899" stroke-linecap="round"/>
<line opacity="0.8" x1="234.784" y1="7.5391" x2="234.784" y2="27.7947" stroke="#F6CE3B" stroke-width="3.87899" stroke-linecap="round"/>
<line opacity="0.8" x1="242.543" y1="9.7266" x2="242.543" y2="25.6062" stroke="#F6CE3B" stroke-width="3.87899" stroke-linecap="round"/>
<line opacity="0.8" x1="250.3" y1="7.5391" x2="250.3" y2="27.7947" stroke="#F6CE3B" stroke-width="3.87899" stroke-linecap="round"/>
<line opacity="0.8" x1="258.058" y1="11.1856" x2="258.058" y2="24.1479" stroke="#F6CE3B" stroke-width="3.87899" stroke-linecap="round"/>
<line opacity="0.8" x1="265.816" y1="4.62113" x2="265.816" y2="30.7114" stroke="#F6CE3B" stroke-width="3.87899" stroke-linecap="round"/>
<line opacity="0.8" x1="273.574" y1="2.43363" x2="273.574" y2="32.8998" stroke="#F6CE3B" stroke-width="3.87899" stroke-linecap="round"/>
<line opacity="0.8" x1="281.332" y1="4.62113" x2="281.332" y2="30.7114" stroke="#F6CE3B" stroke-width="3.87899" stroke-linecap="round"/>
<line opacity="0.8" x1="289.09" y1="9.7266" x2="289.09" y2="25.6062" stroke="#F6CE3B" stroke-width="3.87899" stroke-linecap="round"/>
<line opacity="0.8" x1="296.848" y1="11.9151" x2="296.848" y2="23.4187" stroke="#F6CE3B" stroke-width="3.87899" stroke-linecap="round"/>
<line opacity="0.8" x1="304.606" y1="9.7266" x2="304.606" y2="25.6062" stroke="#F6CE3B" stroke-width="3.87899" stroke-linecap="round"/>
<line opacity="0.8" x1="312.364" y1="6.80961" x2="312.364" y2="28.5238" stroke="#F6CE3B" stroke-width="3.87899" stroke-linecap="round"/>
<line opacity="0.8" x1="320.122" y1="11.1856" x2="320.122" y2="24.1479" stroke="#F6CE3B" stroke-width="3.87899" stroke-linecap="round"/>
<line opacity="0.1" x1="327.88" y1="11.1856" x2="327.88" y2="24.1479" stroke="#F6CE3B" stroke-width="3.87899" stroke-linecap="round"/>
<line opacity="0.1" x1="335.638" y1="14.1026" x2="335.638" y2="21.2302" stroke="#F6CE3B" stroke-width="3.87899" stroke-linecap="round"/>
<line opacity="0.1" x1="343.396" y1="9.7266" x2="343.396" y2="25.6062" stroke="#F6CE3B" stroke-width="3.87899" stroke-linecap="round"/>
<line opacity="0.1" x1="351.154" y1="2.43363" x2="351.154" y2="32.8998" stroke="#F6CE3B" stroke-width="3.87899" stroke-linecap="round"/>
<line opacity="0.1" x1="358.912" y1="8.26859" x2="358.912" y2="27.0655" stroke="#F6CE3B" stroke-width="3.87899" stroke-linecap="round"/>
<line opacity="0.1" x1="366.669" y1="14.1026" x2="366.669" y2="21.2302" stroke="#F6CE3B" stroke-width="3.87899" stroke-linecap="round"/>
<line opacity="0.1" x1="374.428" y1="14.1026" x2="374.428" y2="21.2302" stroke="#F6CE3B" stroke-width="3.87899" stroke-linecap="round"/>
</svg>
