<svg width="32" height="31" viewBox="0 0 32 31" fill="none" xmlns="http://www.w3.org/2000/svg">
<path d="M15.3642 3.04955C15.6617 2.16246 16.9164 2.16246 17.2139 3.04955L19.5702 10.0748C19.7035 10.4722 20.0759 10.7401 20.4951 10.7401H28.0526C29.0051 10.7401 29.393 11.9651 28.6141 12.5133L22.5538 16.7788C22.2009 17.0271 22.0532 17.4777 22.1904 17.8868L24.5177 24.8257C24.8173 25.719 23.8018 26.476 23.0313 25.9336L16.8505 21.5834C16.5137 21.3463 16.0644 21.3463 15.7276 21.5834L9.54678 25.9336C8.77626 26.476 7.76079 25.719 8.06042 24.8257L10.3877 17.8868C10.5249 17.4777 10.3771 17.0271 10.0243 16.7788L3.96401 12.5133C3.1851 11.9651 3.57299 10.7401 4.52549 10.7401H12.083C12.5022 10.7401 12.8746 10.4722 13.0079 10.0748L15.3642 3.04955Z" fill="#FFB100"/>
</svg>
