<svg width="32" height="32" viewBox="0 0 32 32" fill="none" xmlns="http://www.w3.org/2000/svg">
<path d="M14.7143 3.54271C15.0118 2.65563 16.2665 2.65563 16.564 3.54271L18.9203 10.5679C19.0536 10.9654 19.426 11.2332 19.8452 11.2332H27.4027C28.3552 11.2332 28.7431 12.4583 27.9642 13.0065L21.9039 17.272C21.551 17.5203 21.4033 17.9709 21.5404 18.3799L23.8678 25.3188C24.1674 26.2122 23.1519 26.9691 22.3814 26.4268L16.2006 22.0765C15.8638 21.8395 15.4145 21.8395 15.0777 22.0765L8.89688 26.4268C8.12635 26.9691 7.11089 26.2122 7.41052 25.3188L9.73783 18.3799C9.87503 17.9709 9.72724 17.5203 9.37442 17.272L3.31411 13.0065C2.5352 12.4583 2.92309 11.2332 3.87559 11.2332H11.4331C11.8523 11.2332 12.2247 10.9654 12.358 10.5679L14.7143 3.54271Z" fill="#FFB100"/>
</svg>
