<svg width="32" height="31" viewBox="0 0 32 31" fill="none" xmlns="http://www.w3.org/2000/svg">
<path d="M15.1713 3.16381C15.4688 2.27672 16.7235 2.27672 17.0211 3.16381L19.3773 10.189C19.5106 10.5865 19.883 10.8543 20.3022 10.8543H27.8597C28.8122 10.8543 29.2001 12.0794 28.4212 12.6276L22.3609 16.8931C22.0081 17.1414 21.8603 17.592 21.9975 18.001L24.3248 24.9399C24.6244 25.8333 23.609 26.5902 22.8384 26.0479L16.6577 21.6976C16.3209 21.4606 15.8715 21.4606 15.5347 21.6976L9.35391 26.0479C8.58339 26.5902 7.56792 25.8333 7.86755 24.9399L10.1949 18.001C10.3321 17.592 10.1843 17.1414 9.83146 16.8931L3.77114 12.6276C2.99223 12.0794 3.38012 10.8543 4.33262 10.8543H11.8901C12.3094 10.8543 12.6817 10.5865 12.815 10.189L15.1713 3.16381Z" fill="#FFB100"/>
</svg>
