<svg width="32" height="31" viewBox="0 0 32 31" fill="none" xmlns="http://www.w3.org/2000/svg">
<path d="M14.911 3.04076C15.2086 2.15367 16.4633 2.15367 16.7608 3.04076L19.1171 10.066C19.2504 10.4634 19.6227 10.7313 20.042 10.7313H27.5995C28.552 10.7313 28.9399 11.9563 28.161 12.5046L22.1006 16.77C21.7478 17.0184 21.6 17.4689 21.7372 17.878L24.0645 24.8169C24.3642 25.7102 23.3487 26.4672 22.5782 25.9248L16.3974 21.5746C16.0606 21.3375 15.6112 21.3375 15.2744 21.5746L9.09366 25.9248C8.32313 26.4672 7.30767 25.7102 7.6073 24.8169L9.93461 17.878C10.0718 17.4689 9.92401 17.0184 9.5712 16.77L3.51088 12.5046C2.73197 11.9563 3.11987 10.7313 4.07237 10.7313H11.6299C12.0491 10.7313 12.4215 10.4634 12.5548 10.066L14.911 3.04076Z" fill="#FFB100"/>
</svg>
