<svg width="32" height="32" viewBox="0 0 32 32" fill="none" xmlns="http://www.w3.org/2000/svg">
<path d="M15.1478 3.54271C15.4454 2.65563 16.7001 2.65563 16.9976 3.54271L19.3539 10.5679C19.4872 10.9654 19.8595 11.2332 20.2788 11.2332H27.8363C28.7888 11.2332 29.1767 12.4583 28.3978 13.0065L22.3375 17.272C21.9846 17.5203 21.8368 17.9709 21.974 18.3799L24.3014 25.3188C24.601 26.2122 23.5855 26.9691 22.815 26.4268L16.6342 22.0765C16.2974 21.8395 15.848 21.8395 15.5113 22.0765L9.33048 26.4268C8.55995 26.9691 7.54448 26.2122 7.84411 25.3188L10.1714 18.3799C10.3086 17.9709 10.1608 17.5203 9.80802 17.272L3.7477 13.0065C2.96879 12.4583 3.35669 11.2332 4.30918 11.2332H11.8667C12.2859 11.2332 12.6583 10.9654 12.7916 10.5679L15.1478 3.54271Z" fill="#FFB100"/>
</svg>
