<svg width="32" height="31" viewBox="0 0 32 31" fill="none" xmlns="http://www.w3.org/2000/svg">
<path d="M14.955 3.16381C15.2525 2.27672 16.5072 2.27672 16.8048 3.16381L19.161 10.189C19.2943 10.5865 19.6667 10.8543 20.0859 10.8543H27.6434C28.5959 10.8543 28.9838 12.0794 28.2049 12.6276L22.1446 16.8931C21.7918 17.1414 21.644 17.592 21.7812 18.001L24.1085 24.9399C24.4081 25.8333 23.3926 26.5902 22.6221 26.0479L16.4413 21.6976C16.1046 21.4606 15.6552 21.4606 15.3184 21.6976L9.1376 26.0479C8.36708 26.5902 7.35161 25.8333 7.65124 24.9399L9.97856 18.001C10.1158 17.592 9.96796 17.1414 9.61515 16.8931L3.55483 12.6276C2.77592 12.0794 3.16381 10.8543 4.11631 10.8543H11.6738C12.0931 10.8543 12.4654 10.5865 12.5987 10.189L14.955 3.16381Z" fill="#FFB100"/>
</svg>
