<svg width="32" height="31" viewBox="0 0 32 31" fill="none" xmlns="http://www.w3.org/2000/svg">
<path d="M15.2572 3.42162C15.5548 2.53453 16.8095 2.53453 17.107 3.42162L19.4633 10.4468C19.5966 10.8443 19.9689 11.1122 20.3881 11.1122H27.9457C28.8982 11.1122 29.2861 12.3372 28.5071 12.8854L22.4468 17.1509C22.094 17.3992 21.9462 17.8498 22.0834 18.2588L24.4107 25.1978C24.7104 26.0911 23.6949 26.848 22.9244 26.3057L16.7436 21.9554C16.4068 21.7184 15.9574 21.7184 15.6206 21.9554L9.43985 26.3057C8.66932 26.848 7.65386 26.0911 7.95349 25.1978L10.2808 18.2588C10.418 17.8498 10.2702 17.3992 9.91739 17.1509L3.85707 12.8854C3.07817 12.3372 3.46606 11.1122 4.41856 11.1122H11.9761C12.3953 11.1122 12.7676 10.8443 12.901 10.4468L15.2572 3.42162Z" fill="#FFB100"/>
</svg>
