<svg width="32" height="31" viewBox="0 0 32 31" fill="none" xmlns="http://www.w3.org/2000/svg">
<path d="M14.6942 3.04076C14.9918 2.15367 16.2465 2.15367 16.544 3.04076L18.9003 10.066C19.0336 10.4634 19.4059 10.7313 19.8252 10.7313H27.3827C28.3352 10.7313 28.7231 11.9563 27.9442 12.5046L21.8838 16.77C21.531 17.0184 21.3832 17.4689 21.5204 17.878L23.8477 24.8169C24.1474 25.7102 23.1319 26.4672 22.3614 25.9248L16.1806 21.5746C15.8438 21.3375 15.3944 21.3375 15.0576 21.5746L8.87686 25.9248C8.10633 26.4672 7.09087 25.7102 7.3905 24.8169L9.71781 17.878C9.85501 17.4689 9.70722 17.0184 9.35441 16.77L3.29409 12.5046C2.51518 11.9563 2.90307 10.7313 3.85557 10.7313H11.4131C11.8323 10.7313 12.2047 10.4634 12.338 10.066L14.6942 3.04076Z" fill="#FFB100"/>
</svg>
