<svg width="32" height="31" viewBox="0 0 32 31" fill="none" xmlns="http://www.w3.org/2000/svg">
<path d="M15.3881 3.16381C15.6856 2.27672 16.9403 2.27672 17.2379 3.16381L19.5941 10.189C19.7274 10.5865 20.0998 10.8543 20.519 10.8543H28.0765C29.029 10.8543 29.4169 12.0794 28.638 12.6276L22.5777 16.8931C22.2249 17.1414 22.0771 17.592 22.2143 18.001L24.5416 24.9399C24.8412 25.8333 23.8258 26.5902 23.0552 26.0479L16.8744 21.6976C16.5377 21.4606 16.0883 21.4606 15.7515 21.6976L9.57071 26.0479C8.80018 26.5902 7.78472 25.8333 8.08435 24.9399L10.4117 18.001C10.5489 17.592 10.4011 17.1414 10.0483 16.8931L3.98793 12.6276C3.20903 12.0794 3.59692 10.8543 4.54942 10.8543H12.1069C12.5262 10.8543 12.8985 10.5865 13.0318 10.189L15.3881 3.16381Z" fill="#FFB100"/>
</svg>
