<svg width="33" height="31" viewBox="0 0 33 31" fill="none" xmlns="http://www.w3.org/2000/svg">
<path d="M15.6054 3.16381C15.9029 2.27672 17.1576 2.27672 17.4551 3.16381L19.8114 10.189C19.9447 10.5865 20.3171 10.8543 20.7363 10.8543H28.2938C29.2463 10.8543 29.6342 12.0794 28.8553 12.6276L22.795 16.8931C22.4422 17.1414 22.2944 17.592 22.4316 18.001L24.7589 24.9399C25.0585 25.8333 24.043 26.5902 23.2725 26.0479L17.0917 21.6976C16.7549 21.4606 16.3056 21.4606 15.9688 21.6976L9.788 26.0479C9.01747 26.5902 8.002 25.8333 8.30163 24.9399L10.6289 18.001C10.7661 17.592 10.6183 17.1414 10.2655 16.8931L4.20522 12.6276C3.42631 12.0794 3.8142 10.8543 4.7667 10.8543H12.3242C12.7434 10.8543 13.1158 10.5865 13.2491 10.189L15.6054 3.16381Z" fill="#FFB100"/>
</svg>
