<svg width="32" height="31" viewBox="0 0 32 31" fill="none" xmlns="http://www.w3.org/2000/svg">
<path d="M14.7982 3.04955C15.0958 2.16246 16.3505 2.16246 16.648 3.04955L19.0043 10.0748C19.1376 10.4722 19.5099 10.7401 19.9292 10.7401H27.4867C28.4392 10.7401 28.8271 11.9651 28.0482 12.5133L21.9878 16.7788C21.635 17.0271 21.4872 17.4777 21.6244 17.8868L23.9517 24.8257C24.2514 25.719 23.2359 26.476 22.4654 25.9336L16.2846 21.5834C15.9478 21.3463 15.4984 21.3463 15.1616 21.5834L8.98087 25.9336C8.21034 26.476 7.19488 25.719 7.4945 24.8257L9.82182 17.8868C9.95901 17.4777 9.81122 17.0271 9.45841 16.7788L3.39809 12.5133C2.61918 11.9651 3.00708 10.7401 3.95957 10.7401H11.5171C11.9363 10.7401 12.3087 10.4722 12.442 10.0748L14.7982 3.04955Z" fill="#FFB100"/>
</svg>
