<svg width="33" height="31" viewBox="0 0 33 31" fill="none" xmlns="http://www.w3.org/2000/svg">
<path d="M15.5814 3.04955C15.879 2.16246 17.1337 2.16246 17.4312 3.04955L19.7875 10.0748C19.9208 10.4722 20.2931 10.7401 20.7124 10.7401H28.2699C29.2224 10.7401 29.6103 11.9651 28.8314 12.5133L22.771 16.7788C22.4182 17.0271 22.2704 17.4777 22.4076 17.8868L24.735 24.8257C25.0346 25.719 24.0191 26.476 23.2486 25.9336L17.0678 21.5834C16.731 21.3463 16.2816 21.3463 15.9448 21.5834L9.76407 25.9336C8.99354 26.476 7.97808 25.719 8.27771 24.8257L10.605 17.8868C10.7422 17.4777 10.5944 17.0271 10.2416 16.7788L4.18129 12.5133C3.40238 11.9651 3.79028 10.7401 4.74278 10.7401H12.3003C12.7195 10.7401 13.0919 10.4722 13.2252 10.0748L15.5814 3.04955Z" fill="#FFB100"/>
</svg>
