<svg width="32" height="31" viewBox="0 0 32 31" fill="none" xmlns="http://www.w3.org/2000/svg">
<path d="M15.0399 3.42162C15.3375 2.53453 16.5922 2.53453 16.8897 3.42162L19.246 10.4468C19.3793 10.8443 19.7516 11.1122 20.1709 11.1122H27.7284C28.6809 11.1122 29.0688 12.3372 28.2899 12.8854L22.2295 17.1509C21.8767 17.3992 21.7289 17.8498 21.8661 18.2588L24.1934 25.1978C24.4931 26.0911 23.4776 26.848 22.7071 26.3057L16.5263 21.9554C16.1895 21.7184 15.7401 21.7184 15.4033 21.9554L9.22257 26.3057C8.45204 26.848 7.43657 26.0911 7.7362 25.1978L10.0635 18.2588C10.2007 17.8498 10.0529 17.3992 9.70011 17.1509L3.63979 12.8854C2.86088 12.3372 3.24878 11.1122 4.20127 11.1122H11.7588C12.178 11.1122 12.5504 10.8443 12.6837 10.4468L15.0399 3.42162Z" fill="#FFB100"/>
</svg>
