<svg width="33" height="32" viewBox="0 0 33 32" fill="none" xmlns="http://www.w3.org/2000/svg">
<path d="M15.497 3.54271C15.7945 2.65563 17.0492 2.65563 17.3467 3.54271L19.703 10.5679C19.8363 10.9654 20.2087 11.2332 20.6279 11.2332H28.1854C29.1379 11.2332 29.5258 12.4583 28.7469 13.0065L22.6866 17.272C22.3338 17.5203 22.186 17.9709 22.3232 18.3799L24.6505 25.3188C24.9501 26.2122 23.9346 26.9691 23.1641 26.4268L16.9833 22.0765C16.6465 21.8395 16.1972 21.8395 15.8604 22.0765L9.6796 26.4268C8.90907 26.9691 7.89361 26.2122 8.19323 25.3188L10.5205 18.3799C10.6577 17.9709 10.51 17.5203 10.1571 17.272L4.09682 13.0065C3.31791 12.4583 3.70581 11.2332 4.6583 11.2332H12.2158C12.635 11.2332 13.0074 10.9654 13.1407 10.5679L15.497 3.54271Z" fill="#FFB100"/>
</svg>
