<svg width="32" height="31" viewBox="0 0 32 31" fill="none" xmlns="http://www.w3.org/2000/svg">
<path d="M15.2313 3.04955C15.5289 2.16246 16.7836 2.16246 17.0811 3.04955L19.4374 10.0748C19.5707 10.4722 19.943 10.7401 20.3623 10.7401H27.9198C28.8723 10.7401 29.2602 11.9651 28.4813 12.5133L22.4209 16.7788C22.0681 17.0271 21.9203 17.4777 22.0575 17.8868L24.3849 24.8257C24.6845 25.719 23.669 26.476 22.8985 25.9336L16.7177 21.5834C16.3809 21.3463 15.9315 21.3463 15.5948 21.5834L9.41397 25.9336C8.64344 26.476 7.62798 25.719 7.92761 24.8257L10.2549 17.8868C10.3921 17.4777 10.2443 17.0271 9.89151 16.7788L3.8312 12.5133C3.05229 11.9651 3.44018 10.7401 4.39268 10.7401H11.9502C12.3694 10.7401 12.7418 10.4722 12.8751 10.0748L15.2313 3.04955Z" fill="#FFB100"/>
</svg>
