<svg width="32" height="31" viewBox="0 0 32 31" fill="none" xmlns="http://www.w3.org/2000/svg">
<path d="M15.474 3.42162C15.7715 2.53453 17.0263 2.53453 17.3238 3.42162L19.6801 10.4468C19.8134 10.8443 20.1857 11.1122 20.6049 11.1122H28.1625C29.115 11.1122 29.5028 12.3372 28.7239 12.8854L22.6636 17.1509C22.3108 17.3992 22.163 17.8498 22.3002 18.2588L24.6275 25.1978C24.9272 26.0911 23.9117 26.848 23.1412 26.3057L16.9604 21.9554C16.6236 21.7184 16.1742 21.7184 15.8374 21.9554L9.65665 26.3057C8.88612 26.848 7.87066 26.0911 8.17028 25.1978L10.4976 18.2588C10.6348 17.8498 10.487 17.3992 10.1342 17.1509L4.07387 12.8854C3.29496 12.3372 3.68286 11.1122 4.63535 11.1122H12.1929C12.6121 11.1122 12.9844 10.8443 13.1178 10.4468L15.474 3.42162Z" fill="#FFB100"/>
</svg>
